# Alias OBJ Model File
# Exported from SketchUp, (c) 2000-2012 Trimble Navigation Limited
# File units = millimeters

mtllib model C_tree.mtl

g Mesh1 G_3D_TREE1 Model

usemtl M_0075_ForestGreen
v -9018.36 6345.66 69303
vt -55.6811 257.006
vn 0.290555 -0.694622 0.658087
v -7408.27 3794.4 66180.8
vt 56.0261 127.632
vn 0.347541 -0.630263 0.694251
v -6703.22 3678.36 65722.5
vt 88.9244 121.748
vn 0.165391 -0.736657 0.65573
f 1/1/1 2/2/2 3/3/3

v -7485.58 3783.25 66209.4
vt 52.8007 127.067
f 2/2/2 1/1/1 4/4/2

v -7689.91 3624.27 66167.4
vt 46.3481 119.005
f 4/4/2 1/1/1 5/5/2

v -7885.47 3740.04 66370.4
vt 35.8857 124.876
f 5/5/2 1/1/1 6/6/2

v -7937.49 3696.43 66356.8
vt 34.293 122.664
f 6/6/2 1/1/1 7/7/2

v -7981.74 3574.32 66268.1
vt 34.2987 116.472
f 7/7/2 1/1/1 8/8/2

v -8087.2 3284.47 66057.8
vt 34.293 101.774
f 8/8/2 1/1/1 9/9/2

v -8204.66 3254.95 66089.8
vt 29.5935 100.277
f 9/9/2 1/1/1 10/10/2

v -8338.41 3122.8 66036.8
vt 25.8195 93.5753
f 10/10/2 1/1/1 11/11/2

v -8852.5 2988.72 66172.4
vt 5.33039 86.7762
f 11/11/2 1/1/1 12/12/2

v -8887.73 3110.65 66300.7
vt 1.82867 92.9593
f 12/12/2 1/1/1 13/13/2

v -9015.87 3078.06 66335.3
vt -3.29192 91.3065
f 13/13/2 1/1/1 14/14/2

v -9110.97 2922.48 66241.6
vt -4.98972 83.4173
f 14/14/2 1/1/1 15/15/2

v -9128.9 2523.93 65888.8
vt 0.597288 63.2069
vn 0.435977 -0.606551 0.664845
f 16/16/4 15/15/2 1/1/1

v -9076.95 2797.86 66111.5
vt -1.49827 77.098
f 16/16/4 17/17/2 15/15/2

v -8946.61 2831.52 66076.8
vt 3.70184 78.8048
f 16/16/4 18/18/2 17/17/2

f 16/16/4 12/12/2 18/18/2

f 16/16/4 11/11/2 12/12/2

v -8353.47 3019.08 65950.1
vt 26.8157 88.3161
f 16/16/4 19/19/2 11/11/2

v -8232.74 3050.63 65918.3
vt 31.6262 89.9158
f 16/16/4 20/20/2 19/19/2

f 3/3/3 20/20/2 16/16/4

v -7528.56 3649.43 66109.4
vt 53.0494 120.281
f 20/20/2 3/3/3 21/21/2

f 21/21/2 3/3/3 2/2/2

usemtl M_0039_DarkOrange
v -8311.91 2697.15 66040.7
vt 4.53065 93.0992
vn 0.772678 -0.634663 -0.0131184
vt 1.30133 141.614
vt -1.58948 148.999
vn 0.659001 -0.572333 0.488009
v -8353.75 2644.79 66109.3
vt 1.85645 90.4321
f 22/22/5 21/23/5 2/24/6 23/25/6 

v -8226.39 2897.52 66018
vt -25.3062 106.835
vn 0.027689 0.054261 -0.998143
v -7737.88 3483.3 66063.4
vt -43.4802 130.807
vt -51.7115 137.606
vn 0.408187 -0.272896 -0.871155
vt -22.6362 98.6351
f 24/26/7 25/27/7 21/28/8 22/29/8 

v -8183.5 3041.66 66061.7
vt -31.482 106.932
vn -0.360228 0.36688 -0.857692
v -7822.17 3469.14 66092.8
vt -44.1234 125.023
vt -47.6306 125.622
vt -30.5905 100.832
f 26/30/9 27/31/9 25/32/7 24/33/7 

v -7928.64 3341.77 66149.7
vt 0.0615074 121.625
vn -0.671923 0.535783 0.511328
vt 0.927948 136.177
vt -2.10342 128.186
vn -0.764152 0.644888 0.013808
vt -3.58466 106.166
v -8200.44 3020.98 66090.1
vt -2.47673 105.1
v -8312.27 2887.8 66121.2
vt -1.3308 98.2396
v -8023.62 3229.37 66142.6
vt -0.283205 115.835
v -8029.36 3222.78 66132.8
vt -0.674274 115.496
v -8004.63 3252.88 66096
vt -2.10545 117.046
v -7945.36 3322.59 66120.3
vt -1.1064 120.637
f 28/34/10 5/35/10 27/36/11 26/37/11 29/38/11 30/39/10 31/40/10 32/41/11 33/42/11 34/43/11 

v -8400.54 2685.64 66146.4
vt 21.3327 96.5392
vn -0.399661 0.283122 0.871845
vt 55.1117 141.596
vt 47.1092 135.07
vt 38.2748 123.473
v -7916.58 3317.56 66163.1
vt 38.9263 122.479
v -7947.89 3229.41 66177.3
vt 38.0399 118.86
v -8003.82 3188.37 66165
vt 35.8363 117.176
vt 34.7601 118.859
vt 24.0786 104.838
f 35/44/12 4/45/12 5/46/10 28/47/10 36/48/12 37/49/12 38/50/12 31/51/10 30/52/10 

vt 24.5105 92.4512
vt 57.6009 140.897
vt 54.3602 140.427
vn 0.368754 -0.356654 0.858381
vt 22.2417 94.1727
v -8333.76 2710.77 66128.2
vt 24.941 95.2315
f 23/53/6 2/54/6 4/55/13 35/56/13 39/57/13 

vt 31.4211 110.668
vn 0.261463 0.00607511 0.965194
vt 36.0572 121.042
vt 31.2639 119.88
vn -0.212964 0.212766 0.953613
v -8872.75 1732.13 66280.3
vt 3.91455 59.9249
v -8871.22 1460.2 66281.6
vt 3.95929 49.2186
vt 25.963 98.4548
vt 23.2375 97.4655
vt 26.851 105.424
f 29/58/14 9/59/14 10/60/15 40/61/15 41/62/14 39/63/14 35/64/14 30/65/14 

v -8841.66 1448.37 66171.6
vt 1.77289 47.8824
vn 0.883381 -0.404487 -0.236701
v -8100.25 3183.83 65972.9
vt 17.9041 120.829
vt 14.8673 125.06
vn 0.894443 -0.350299 0.277961
vt 12.3286 113.984
vt 13.5962 114.854
vt 14.736 108.795
vt 12.8835 100.373
vt 9.81395 98.172
vt 9.33969 100.945
vt -2.70967 48.3793
f 42/66/16 43/67/16 9/68/17 29/69/17 26/70/17 24/71/17 22/72/17 23/73/17 39/74/17 41/75/17 

v -8920.01 1465.44 66090.5
vt -0.436366 47.9152
vn 0.63563 -0.350299 -0.687943
vt -15.7098 114.546
vt -20.9997 120.145
vt -4.86842 47.1979
v -8841.09 1453.87 66169.3
vt -4.82426 47.4287
f 44/76/18 20/77/18 43/78/16 42/79/16 45/80/18 

v -8920.69 1737.27 66092.4
vt -4.01685 60.1494
vn -0.661239 0.212766 -0.719371
vt -27.0379 110.615
vt -31.9529 111.858
vn -0.256164 0.00607511 -0.966614
vt -4.06158 49.4473
f 46/81/19 19/82/19 20/83/20 44/84/20 

v -8845.63 1983.25 66172.7
vt -1.70553 67.3066
vn -0.889144 0.362449 -0.279381
vt -12.7965 115.444
vt -15.8719 111.063
vt -3.83439 56.9159
v -8845.02 1982.99 66170.4
vt -1.79844 67.2959
f 47/85/21 11/86/21 19/87/19 46/88/19 48/89/21 

vt 6.87552 55.9871
vt 21.1763 120.315
vt 15.8859 114.732
vn -0.630331 0.362449 0.686523
vt 4.7949 66.5948
f 40/90/15 10/91/15 11/92/22 47/93/22 

vt 1.53713 69.7942
vn 0.965897 0.0076968 -0.258811
vt 1.38475 109.391
vt -3.85425 114.191
vn 0.965904 0.00666567 0.258813
v -8871.93 209.138 66316.5
vt -4.29387 -0.0441776
v -8831.83 209.138 66166.9
vt 1.8059 -0.0441776
vt 1.6173 48.962
vt 1.52517 48.7458
vt -2.96077 49.2112
vt -2.92701 59.9176
vt 1.44413 69.8042
f 48/94/23 12/95/23 13/96/24 49/97/24 50/98/23 45/99/23 42/100/24 41/101/24 40/102/24 47/103/24 

v -8941.39 209.138 66057.3
vt 1.26302 -0.0325136
vn 0.707091 0.00666567 -0.707091
vt 0.865691 103.213
vt -4.4156 109.402
vt -4.56798 69.8059
vt -0.290693 60.1315
vt -0.256947 49.4293
vt -4.64815 48.9737
vt -4.83675 -0.0325136
f 51/104/25 18/105/25 12/106/23 48/107/23 46/108/25 44/109/25 45/110/23 50/111/23 

v -9080.41 2162.14 66108
vt 2.2111 76.8681
vn -0.707086 0.0076968 -0.707086
vt 2.11478 101.897
vt -3.19543 103.222
vn -0.258813 0.00666567 -0.965904
vt -3.59276 -0.0235478
v -9091.04 209.138 66097.4
vt 2.50701 -0.0235478
v -9081.44 1973.35 66107
vt 2.23971 69.4353
v -9034.94 1932.18 66094.3
vt 0.341303 67.8142
v -8957.55 2000.48 66074
vt -2.80793 70.5034
v -8957.96 2135.4 66075
vt -2.78202 75.8152
v -9034.47 2202.03 66096
vt 0.341303 78.4385
f 52/112/26 17/113/26 18/114/27 51/115/27 53/116/26 54/117/26 55/118/27 56/119/27 57/120/27 58/121/27 

v -9131.14 209.138 66247.1
vt 4.29387 -0.026246
vn -0.965904 0.00666567 -0.258813
vt 3.88276 106.801
vt -1.41366 101.894
vt -1.50999 76.8654
v -9097.47 2075.93 66169.5
vt 1.00044 73.471
v -9098.29 1939.82 66169
vt 0.990923 68.1125
vt -1.53859 69.4326
vt -1.8059 -0.026246
f 59/122/28 15/123/28 17/124/26 52/125/26 60/126/28 61/127/28 54/128/26 53/129/26 

v -9017.3 2363.75 66340.6
vt 4.51029 84.7911
vn -0.258811 0.0076968 0.965897
vt 4.40206 112.914
vt -0.851909 106.789
vn -0.707091 0.00666567 0.707091
vt -1.26302 -0.03791
v -9021.59 209.138 66356.6
vt 4.83675 -0.03791
v -9017.6 2212.86 66341.7
vt 4.53315 78.8507
v -9041.89 2178.97 66317.7
vt 3.18974 77.5161
v -9085.77 2222.58 66273.4
vt 0.734847 79.2331
v -9084.98 2326.81 66273.3
vt 0.751366 83.3368
v -9041.04 2387.02 66316.6
vt 3.18239 85.7073
f 62/130/29 14/131/29 15/132/30 59/133/30 63/134/29 64/135/29 65/136/30 66/137/30 67/138/30 68/139/30 

vt 3.59276 -0.0468758
vn 0.258813 0.00666567 0.965904
vt 3.15313 114.188
vt -2.07233 112.905
vt -2.18055 84.7821
v -8973.34 2301.8 66329.2
vt -0.393315 82.3431
v -8973.22 2197.01 66329.9
vt -0.395948 78.2174
vt -2.20342 78.8417
vt -2.50701 -0.0468758
f 49/140/31 13/141/31 14/142/29 62/143/29 69/144/31 70/145/31 64/146/29 63/147/29 

vt -5.34504 70.8047
vn 0.781389 0.591085 -0.200124
v -9592.43 3360.74 67039.7
vt -27.5361 118.331
v -9643.28 3478.89 67190.1
vt -32.7763 124.098
vn 0.908633 0.344094 0.236614
vt -6.48719 66.645
vt -6.49073 69.6688
f 68/148/32 71/149/32 72/150/33 69/151/33 62/152/32 

vt 3.16785 69.6765
vn -0.468609 0.344094 -0.813637
v -9611.65 3276.29 66978.1
vt 24.3735 116.02
vt 23.6581 120.142
vn -0.0137679 0.591085 -0.806492
vt 1.46708 72.6153
f 67/153/34 73/154/34 71/155/35 68/156/35 

vt 5.211 79.2683
vn -0.797893 0.00490658 -0.60278
v -9682.32 3314.9 67072
vt 44.4532 122.274
vt 39.8276 120.754
vt 5.18619 83.372
f 66/157/36 74/158/36 73/159/34 67/160/34 

vt 5.35966 64.7676
vn -0.449501 -0.67119 0.589451
v -9730.87 3433.85 67221.2
vt 32.8464 125.483
vt 27.651 119.728
vn -0.786861 -0.581272 0.2073
vt 3.23307 66.8776
f 65/161/37 75/162/37 74/163/38 66/164/38 

vt 1.23742 67.4056
vn 0.00829612 -0.581272 0.813667
v -9711.09 3513.49 67277.9
vt -28.1914 131.102
vt -28.9474 127.249
vt -1.46073 66.5327
vt -0.514179 68.1728
f 70/165/39 76/166/39 75/167/37 65/168/37 64/169/39 

vt -4.25135 82.363
vt -47.197 128.706
vt -51.5652 130.068
vn 0.792421 0.00490658 0.609955
vt -4.27015 78.2374
f 69/170/33 72/171/33 76/172/40 70/173/40 

usemtl M_0075_ForestGreen
vt -44.98 113.802
vn 0.520382 -0.57723 0.629292
v -9859.68 5011.47 68774.9
vt -91.3058 187.693
vt -49.2408 115.47
f 72/174/41 77/175/41 76/176/41

vt -79.03 252.018
f 72/174/41 1/177/1 77/175/41

vt -39.6634 108.106
f 71/178/41 1/177/1 72/174/41

vt 3.275 67.7601
f 1/177/1 71/178/41 16/179/4

vt -38.702 104.034
f 73/180/41 16/179/4 71/178/41

vt -43.201 105.896
f 74/181/41 16/179/4 73/180/41

v -10139 3682.92 67787.2
vt -75.001 123.639
f 16/179/4 74/181/41 78/182/41

vt -48.4187 111.631
f 78/182/41 74/181/41 75/183/41

f 78/182/41 75/183/41 77/175/41

f 76/176/41 77/175/41 75/183/41

v -11278.3 4901.95 67871.8
vt -43.0428 211.587
vn -0.447545 -0.471016 0.760163
v -10484.7 4038.22 67803.8
vt -17.4735 173.038
vt -6.07795 157.18
vt 23.1265 216.475
v -10205.2 4898.04 68501.1
vt 5.93517 211.412
f 79/184/42 80/185/42 78/186/42 77/187/42 81/188/42 

vt 61.4044 199.176
vn -0.733786 -0.677843 0.0456926
v -11869.2 5516.01 67491.7
vt 45.0253 232.059
v -12098.4 5691.86 66419.9
vt 2.34696 241.476
vn -0.691872 -0.716151 0.0918728
v -10637.6 3922.11 63625.9
vt -103.866 146.706
vn -0.699808 -0.71023 0.0764315
vt 60.6772 152.924
vn -0.724428 -0.687839 0.0456279
f 79/189/43 82/190/43 83/191/44 84/192/45 80/193/46 

v -9961.36 7822.85 68484.1
vt 13.6903 294.813
vn -0.49675 0.0300655 0.867373
v -12022.8 6426.35 67351.9
vt -78.8678 239.772
vt -70.868 203.892
vn -0.50521 0.0471455 0.861708
vt -43.2314 179.689
vt 5.7466 179.535
vn -0.573638 0.0737781 0.815779
v -9322.56 7785.92 68860.6
vt 42.8838 293.358
f 85/194/47 86/195/47 82/196/48 79/197/48 81/198/49 87/199/49 

v -11770.3 7883.68 67471.5
vt -69.9151 300.852
vn -0.488095 0.0129735 0.872694
v -12115.2 7006.87 67291.6
vt -85.2244 266.329
vt -80.8897 243.471
vt 11.702 298.456
f 88/200/50 89/201/50 86/202/47 85/203/47 

v -12039.6 5219.13 64116.7
vt -45.888 126.545
vn -0.94214 0.300706 -0.148148
v -12249.9 5674.6 65614.2
vt 13.1367 146.092
vn -0.883983 0.398061 -0.245195
vt 75.3561 203.269
vt 78.5508 240.899
v -11612.9 8111.38 67273.8
vt 69.3968 250.671
f 90/204/51 91/205/52 89/206/52 88/207/52 92/208/51 

vt -111.246 128.098
vt -15.6307 233.55
vt -47.897 232.522
vn -0.646252 -0.750624 0.137561
vt -103.839 205.382
f 84/209/45 83/210/44 91/211/53 90/212/53 

vt 20.5074 282.585
vn -0.973177 -0.135613 0.185838
vt -45.354 229.644
vt -13.0786 230.33
vt 30.0641 223.342
vt 23.5224 259.516
f 89/213/54 91/214/54 83/215/54 82/216/54 86/217/54 

vt 53.2176 227.158
vn -0.539824 -0.275446 -0.795437
v -8211.56 4325.25 61828.3
vt -122.059 190.457
vn -0.54292 -0.276813 -0.792851
vt -3.27754 173.904
vn -0.539961 -0.283832 -0.79239
f 90/218/55 93/219/56 84/220/57

vt 53.7257 225.803
v -11706.4 6703.23 63395.1
vt 26.9472 286.434
vn -0.539644 -0.267038 -0.79842
v -10902 7120.55 62711.8
vt -14.3546 303.483
vn -0.544388 -0.273297 -0.793064
vt -121.589 189.285
f 90/221/55 94/222/58 95/223/59 93/224/56 

v -11561.8 8312.59 67053.6
vt 39.7452 293.377
vn -0.953014 0.296605 -0.0615533
v -11494.3 7833.4 63699.8
vt -92.2667 274.136
vt -103.842 228.754
vn -0.979307 0.196652 -0.0478009
vt -74.8268 169.162
vt 48.5033 285.298
f 96/225/60 97/226/60 94/227/61 90/228/51 92/229/51 

v -10891.4 9391.12 64506.2
vt -59.1677 301.174
vn -0.916361 0.393335 -0.0746366
v -11184.8 8555.2 63703.6
vt -89.7236 265.378
vt -88.8852 234.47
vt 42.934 254.99
v -11315.2 8798.24 66585.9
vt 23.7925 275.786
v -11110.2 9126.27 65797
vt -7.8182 289.833
f 98/230/62 99/231/62 97/232/60 96/233/60 100/234/62 101/235/62 

v -7016.89 9005.78 62402.7
vt -130.713 167.402
vn -0.25921 0.768224 -0.585357
v -10620.3 7966.69 62805.2
vt 5.79159 108.949
vn -0.282846 0.748537 -0.599742
vt 40.2289 142.055
vn -0.277731 0.714275 -0.642399
vt 42.1641 189.079
v -10556.6 9544.84 64532.4
vt 30.4763 197.726
vn -0.245047 0.76152 -0.600033
f 102/236/63 103/237/64 99/238/65 98/239/65 104/240/66 

vt -137.652 141.799
v -7986.77 8233.58 61818.7
vt -114.293 93.1644
vn -0.287107 0.780539 -0.555273
v -9975.63 7565.59 61908.1
vt -43.1231 51.0938
vt -4.35754 76.3554
f 102/241/63 105/242/67 106/243/67 103/244/64 

vt 12.0478 350.165
vn 0.503819 -0.0322269 -0.863208
v -6197.56 5534.08 63010.5
vt -27.9874 213.446
v -6639.67 5075.24 62747.3
vt -7.73417 195.376
vn 0.523726 -0.0311023 -0.851319
v -8330.91 6816.95 61643.2
vt 71.766 263.967
vt 56.6141 319.755
vn 0.529383 -0.023541 -0.848056
f 102/245/68 107/246/68 108/247/69 109/248/69 105/249/70 

v -5528.66 7823.6 63268
vt -65.6621 306.307
vn 0.477773 -0.0408819 -0.877532
v -5720.61 6075.01 63245
vt -58.5915 237.407
vt -37.6855 216.092
vt 2.0876 352.888
f 110/250/71 111/251/71 107/252/68 102/253/68 

vt 41.8372 144.71
vn 0.958433 -0.279431 -0.0576655
v -6307.88 4002.39 64472.3
vt 93.4445 157.543
vn 0.955581 -0.108505 0.274028
vt 146.263 239.627
vt 147.474 308.878
vn 0.968351 -0.244405 0.050627
f 3/254/72 112/255/73 111/256/73 110/257/74 

vt 62.0819 197.154
vn 0.263837 -0.929798 -0.256644
v -7338.32 4325.7 62357.7
vt 21.8786 197.225
vn 0.12818 -0.969125 -0.210633
vt -56.056 145.603
vt -68.3493 93.8644
f 93/258/75 113/259/76 112/260/76 3/261/75 

vt 69.6023 266.377
vt -9.87003 197.755
vt 21.6035 168.223
vn 0.518017 -0.0386605 -0.854496
vt 61.8068 168.206
v -8584.11 5893.31 61531.5
vt 80.4066 229.986
f 109/262/69 108/263/69 113/264/77 93/265/77 114/266/77 

vt 34.195 283.941
vn 0.759011 -0.477281 -0.442838
vt 4.11349 191.083
vt 96.4654 205.568
vt 69.3545 239.149
vt 51.6313 259.706
f 111/267/78 112/268/78 113/269/78 108/270/78 107/271/78 

vt -16.5835 304.385
vt -64.5967 322.634
vn -0.549083 -0.279532 -0.787636
vt -118.017 254.063
vt -123.367 189.765
f 95/272/59 106/273/79 114/274/79 93/275/56 

vt -5.74958 243.805
vn -0.703495 0.305078 -0.641889
vt -13.851 273.644
vt -54.9607 249.315
vt -98.1576 232.733
vt -50.2015 214.335
vt -8.98423 197.082
f 97/276/80 99/277/80 103/278/80 106/279/80 95/280/80 94/281/80 

vt 22.2609 261.922
vn -0.0928325 0.144592 -0.985127
vt -56.0254 288.5
vt -43.1847 232.135
vt -33.6728 195.385
f 106/282/81 105/283/81 109/284/81 114/285/81 

vt 11.6687 47.3396
vn 0.393671 -0.869953 -0.296992
vt 117.537 191.151
vt -40.6206 139.505
f 16/286/82 93/287/75 3/288/75

vt 0.402536 52.9915
vn -0.172809 -0.885276 -0.431767
v -9085.3 2647.62 65617.7
vt -5.15644 63.4624
vt -92.5292 205.482
f 16/289/83 115/290/83 93/291/83

v -9129.86 2596.69 65740
vt -1.73952 59.1516
f 115/290/83 16/289/83 116/292/83

v -9233.73 2665.61 65640.3
vt 0.597877 64.9859
f 16/289/83 117/293/83 116/292/83

vt 22.4417 171.354
f 117/293/83 16/289/83 84/294/83

vt -11.2604 68.1602
vn -0.714934 -0.697706 0.0455547
vt 60.7993 131.854
vt 60.5875 151.381
vt -103.949 144.999
f 16/295/84 78/296/84 80/297/46 84/298/45 

v -9289.69 2781.37 65425.3
vt -0.500818 74.7851
f 117/293/83 84/294/83 118/299/83

v -9245.08 2828.91 65310
vt -3.81873 78.8097
f 118/299/83 84/294/83 119/300/83

f 93/291/83 119/300/83 84/294/83

v -9144.52 2764 65402.8
vt -6.13599 73.3148
f 93/291/83 120/301/83 119/300/83

f 93/291/83 115/290/83 120/301/83

usemtl M_0039_DarkOrange
vt 3.04989 70.5106
vn 0.964737 0.00490658 -0.263171
vt 30.4795 100.571
vt 21.7026 95.9887
vn 0.930398 0.344094 0.126328
vt 3.0146 75.8225
f 56/302/85 120/303/85 115/304/86 57/305/86 

vt 2.16211 56.4898
vn -0.191859 -0.67119 -0.716026
vt 21.8038 99.8767
vt 16.7342 96.7362
vn 0.316796 -0.581272 -0.749508
vt -0.333491 59.7945
f 55/306/87 119/307/87 120/308/88 56/309/88 

vt 2.228 57.1034
vn -0.649108 -0.581272 -0.490695
vt -16.5839 97.8203
vt -21.2653 100.121
vt -1.62357 56.7336
vt -0.119183 58.7257
f 61/310/89 118/311/89 119/312/87 55/313/87 54/314/89 

vt -0.841645 73.4776
vn -0.742585 0.344094 0.574602
vt -22.3561 96.6939
vt -31.1003 101.251
vn -0.967072 0.00490658 0.254455
vt -0.867628 68.1191
f 60/315/90 117/316/90 118/317/91 61/318/91 

vt -2.13343 64.5577
vn -0.319132 0.591085 0.740792
vt -11.1278 83.8211
vt -16.4369 87.185
vt -3.26688 58.4027
vt -3.60716 62.6108
f 58/319/92 116/320/92 117/321/90 60/322/90 52/323/92 

vt 4.05952 61.5557
vt 15.4993 86.5566
vt 10.5922 84.0712
vn 0.646772 0.591085 0.481979
vt 1.59778 64.8079
f 57/324/86 115/325/86 116/326/93 58/327/93 

usemtl M_0075_ForestGreen
vt 86.1907 335.998
v -5042.03 7754.47 65936.4
vt -20.5901 333.076
vn 0.91475 -0.363553 -0.176244
v -5131.86 7208.11 66597.2
vt -45.4657 309.986
vn 0.910185 -0.350504 -0.220704
vt 0.0507064 160.812
f 110/328/74 121/329/94 122/330/95 3/331/72 

vt 92.2127 82.9119
vn 0.669689 0.735596 -0.102053
v -6910.52 9444.44 66470.4
vt -24.2212 179.71
vn 0.671815 0.736091 -0.0826705
v -6584.55 9210.17 66835.4
vt -40.3635 165.719
vn 0.651701 0.751938 -0.0993712
v -5644.84 8387.78 66775.3
vt -43.6001 116.605
vt -14.5283 78.7833
f 110/332/96 123/333/97 124/334/98 125/335/98 121/336/98 

v -7689.38 10083.5 65278.2
vt 29.9392 230.436
vn 0.691302 0.719556 -0.0658925
v -7604.07 10022 65501.3
vt 20.8758 226.948
vt -19.6953 194.203
vt 100.649 102.311
v -7524.67 9841.41 64362.1
vt 65.2278 216.709
vn 0.67854 0.727253 -0.103372
f 126/337/99 127/338/99 123/339/97 110/340/96 128/341/100 

v -8039.19 10130.7 64918.7
vt 4.60044 214.891
vn -0.20749 0.916177 0.34288
v -8822.2 8885.89 67771.1
vt 40.8995 93.8713
v -8221.63 8944.12 68011.2
vt 65.831 99.5315
vn -0.223589 0.914329 0.337654
v -7776.7 9217.82 67564.6
vt 70.73 126.14
vt 31.5462 204.321
vt 23.8958 210.303
f 129/342/101 130/343/101 131/344/102 132/345/102 127/346/102 126/347/102 

v -8180.55 10152.1 64784.7
vt 2.25892 213.62
vn -0.200152 0.91948 0.338371
v -10693.3 8844.47 66851.7
vt -45.2243 83.9891
vt 36.7674 88.0955
vt 9.67761 211.504
f 133/348/103 134/349/103 130/350/101 129/351/101 

vt -77.7281 107.143
vn -0.208939 0.921041 0.328677
vt -67.8792 73.9836
vt -41.6009 78.6568
vt -1.77155 210.84
v -8352.96 10175.7 64609.1
vt -11.2097 213.223
v -10030.5 9774.83 64665.9
vt -65.7444 172.704
f 101/352/104 100/353/104 134/354/103 133/355/103 135/356/104 136/357/104 

v -9101.76 7722.14 69053.3
vt 48.9647 124.541
vn -0.311412 0.736463 0.600536
vt 60.8376 195.659
vt 35.4972 192.27
vt -46.5619 189.859
vt -73.1166 187.169
vt -73.2569 158.905
vt -71.0534 147.195
vt -72.9711 133.943
vt 8.60443 130.402
vt 37.7551 128.253
f 137/358/105 131/359/105 130/360/105 134/361/105 100/362/105 96/363/105 92/364/105 88/365/105 85/366/105 87/367/105 

vt 0.840455 336.474
vn 0.642054 0.174289 0.746586
vt -23.9032 325.531
vt -76.9282 276.674
vt -80.8466 221.64
vn 0.494794 0.287166 0.820192
v -7303.25 9267.95 67145.8
vt 25.7257 338.479
vn 0.524494 0.284533 0.802463
f 132/368/106 131/369/106 137/370/106 1/371/107 138/372/108 

vt 78.7566 230.896
vn -0.637764 0.0998572 0.763732
vt 69.9374 285.36
vt 58.4019 287.884
vt 22.656 173.617
vt 40.0061 178.105
f 1/373/109 137/374/109 87/375/49 81/376/49 77/377/109 

vt 109.655 266.878
vn 0.391673 0.386499 0.834992
vt 75.1546 301.984
vt 44.3484 304.45
vt -52.8513 179.705
v -5469.41 7541.37 67084.8
vt 110.733 230.747
vn 0.413673 0.339396 0.844799
f 125/378/110 124/379/110 138/380/108 1/381/107 139/382/111 

vt 36.3343 94.3852
vn 0.232116 0.899558 0.370024
vt 66.7972 89.1776
vt 63.5632 110.293
vt 60.7065 162.351
vt 11.7808 89.8668
f 138/383/112 124/384/112 123/385/112 127/386/112 132/387/112 

vt -56.4914 199.138
v -6113.25 5414.53 68140.1
vt 66.1986 160.817
vn 0.434515 0.291342 0.852242
v -5351.33 5820.67 67612.8
vt 102.352 177.532
v -5184.19 6525.7 67286.6
vt 114.048 206.548
vt 107.653 248.348
f 1/388/107 140/389/113 141/390/113 142/391/113 139/392/111 

vt 89.8685 63.0432
v -6272.63 4226.26 66495.6
vt 108.068 99.7559
vn -0.0243645 -0.809178 0.587058
vt 117.022 179.377
vt 4.64455 241.767
f 3/393/3 143/394/114 140/395/114 1/396/1 

vt -84.5763 278.617
vn 0.903647 -0.336696 -0.264684
vt -95.0526 249.138
vt -42.6471 182.474
vt -8.67282 159.566
vt -59.1084 307.149
f 142/397/115 141/398/115 143/399/115 3/400/72 122/401/95 

vt 47.7858 183.245
vn 0.633912 -0.654741 0.411667
vt 30.6534 266.293
vt -3.09503 245.139
f 143/402/116 141/403/116 140/404/116

vt 71.2481 237.047
vn 0.8672 0.319423 0.382013
vt 31.4567 263.359
vt 23.0901 228.193
vt 20.3465 185.996
vt 46.0153 214.347
f 121/405/117 125/406/117 139/407/117 142/408/117 122/409/117 

vt 39.7541 95.6881
vn 0.318739 0.928964 -0.188229
vt 30.3481 93.1816
vt 22.9752 90.9112
vt 3.78749 85.8918
vt 31.5458 60.1388
v -7509.12 9673.33 63558.9
vt 58.4636 42.2618
f 135/410/118 133/411/118 129/412/118 126/413/118 128/414/118 144/415/118 

vt 128.793 156.546
vn 0.664675 0.733768 -0.140684
vt 88.2744 195.229
vt 57.4639 204.969
vt 83.3299 88.0405
f 102/416/119 144/417/119 128/418/100 110/419/96 

vt 16.6508 167.47
vn -0.211114 0.804884 -0.55461
vt -45.8683 194.062
vt -91.6262 160.736
vt -125.93 116.449
vt 34.14 152.211
f 136/420/120 135/421/120 144/422/120 102/423/63 104/424/66 

vt -67.5423 143.23
vn -0.421918 0.899558 0.113053
vt -77.9806 122.5
vt -82.3876 108.645
vt -35.531 84.7737
f 136/425/121 104/426/121 98/427/121 101/428/121 

usemtl WarmGray6
vt 1.74986 -6.64264
vn -3.79583e-016 -1 1.71676e-016
vt 7.03242 -3.59276
vt 7.03242 2.50701
vt 1.74986 5.5569
vt -3.5327 2.50701
vt -3.5327 -3.59276
f 50/429/122 49/430/122 63/431/122 59/432/122 53/433/122 51/434/122 

usemtl M_0075_ForestGreen
vt 46.4916 111.856
vt 35.3285 96.6702
f 20/20/2 25/435/2 43/436/2

f 20/20/2 21/21/2 25/435/2

vt 43.0067 111.139
f 43/436/2 25/435/2 27/437/2

v -7918.31 3541.23 66206.3
vt 37.6207 114.794
f 43/436/2 27/437/2 145/438/2

v -7875.29 3665.02 66297.2
vt 37.534 121.071
f 145/438/2 27/437/2 146/439/2

f 27/437/2 6/6/2 146/439/2

f 5/5/2 6/6/2 27/437/2

usemtl M_0039_DarkOrange
vt 17.1596 128.349
vn 0.888208 -0.253433 0.383221
vt 12.9558 142.49
vt 10.1509 145.544
vn 0.546633 -0.353729 0.758991
vt 16.1552 124.761
f 36/440/123 146/441/123 6/442/124 37/443/124 

usemtl WarmGray6
vt -21.3868 117.782
vn 0.446504 0.2792 -0.850107
vt -24.8017 126.445
vt -28.7206 131.349
vn 0.830398 0.111991 -0.5458
vt -23.416 117.583
vt -22.7145 118.542
f 34/444/125 145/445/125 146/446/126 36/447/126 28/448/126 

vt -39.5349 111.106
vn -0.0570248 0.371601 -0.92664
v -7972.78 3494.05 66190.8
vt -40.5574 121.333
vt -42.6602 123.334
vt -41.8053 114.062
f 33/449/127 147/450/127 145/451/125 34/452/125 

vt -16.3591 123.639
vn -0.990417 0.0959246 0.0993619
vt -12.1956 137.996
vt -15.1353 134.717
vn -0.886638 0.265786 -0.37846
vt -18.074 124.868
f 32/453/128 8/454/128 147/455/129 33/456/129 

vt 21.7546 113.428
vn -0.828828 -0.0996385 0.550561
vt 29.489 133.53
vt 25.6162 128.699
vt 20.1413 114.789
vt 20.5887 115.05
f 38/457/130 7/458/130 8/459/128 32/460/128 31/461/130 

usemtl M_0039_DarkOrange
vt 41.5639 112.048
vt 43.5392 133.59
vt 41.5287 131.75
vn 0.0585952 -0.359248 0.931401
vt 39.3968 110.316
f 37/462/124 6/463/124 7/464/131 38/465/131 

usemtl M_0075_ForestGreen
vt 35.9774 112.401
f 43/436/2 147/466/2 8/8/2

f 43/436/2 145/438/2 147/466/2

f 8/8/2 9/9/2 43/436/2

