# Alias OBJ Model File
# Exported from SketchUp, (c) 2000-2012 Trimble Navigation Limited
# File units = millimeters

mtllib AppleTree_wood(orange).mtl

g Mesh1 Group1 Model

usemtl M_0039_DarkOrange
v 68564.3 2356.27 -59822.9
vt 42.9507 77.3745
vn 0.518653 -0.338611 0.785074
v 68545.6 2299.65 -59835
vt 42.5993 75.0051
v 68571.6 1282.91 -60290.6
vt 53.342 32.4632
f 1/1/1 2/2/1 3/3/1

usemtl BackColor
vn -0.518653 0.338611 -0.785074
f 3/3/2 2/2/2 1/1/2

usemtl M_0039_DarkOrange
v 68501.2 2344.58 -59786.3
vt 40.085 76.8852
f 4/4/1 3/3/1 2/2/1

v 68492.7 1272.77 -60242.9
vt 49.7145 32.0386
vn 4.57082e-014 -0.396043 0.918232
f 4/4/1 5/5/3 3/3/1

v 68492.7 2762.29 -59600.5
vt 35.7724 94.3632
f 5/5/3 4/4/1 6/6/3

usemtl BackColor
vn -4.57082e-014 0.396043 -0.918232
f 6/6/4 4/4/2 5/5/4

usemtl M_0039_DarkOrange
v 68501.4 2516.56 -59712.2
vt 38.4834 84.081
f 6/6/3 4/4/1 7/7/1

usemtl BackColor
f 7/7/2 4/4/2 6/6/4

usemtl M_0039_DarkOrange
v 68544 2640.28 -59687
vt 39.3353 89.2577
f 6/6/3 7/7/1 8/8/1

usemtl BackColor
f 8/8/2 7/7/2 6/6/4

usemtl M_0039_DarkOrange
v 68560.9 2848.67 -59608.3
vt 38.1838 97.9774
f 8/8/1 9/9/1 6/6/3

v 68562.5 2622.52 -59706.8
vt 40.3732 88.5148
f 9/9/1 8/8/1 10/10/1

usemtl BackColor
f 10/10/2 8/8/2 9/9/2

usemtl M_0039_DarkOrange
v 68639.7 2801.38 -59575.3
vt -38.9937 72.7069
vn 0.326738 0.527058 -0.784507
vt -37.3575 63.5977
vn -0.194694 0.63435 -0.748127
vt -36.4567 64.5019
f 11/11/5 10/12/6 8/13/6

v 68563.4 2508.22 -59804
vt -38.3552 57.7762
f 10/12/6 11/11/5 12/14/5

usemtl BackColor
vn -0.326738 -0.527058 0.784507
vn 0.194694 -0.63435 0.748127
f 12/14/7 11/11/7 10/12/8

usemtl M_0039_DarkOrange
vt -6.78721 87.5902
v 68564.6 2334.71 -59880.8
vt 4.48097 68.5101
vn 0.75514 0.269699 -0.597517
vt 2.13815 75.604
f 11/15/5 13/16/9 12/17/5

v 68661.1 2766.19 -59564.1
vt -7.65463 86.1513
f 14/18/9 13/16/9 11/15/5

v 68682.1 2801.41 -59521.6
vt -9.48347 87.5914
f 15/19/9 13/16/9 14/18/9

v 68802.6 3276.78 -59154.7
vt -23.7519 107.027
f 15/19/9 16/20/9 13/16/9

v 68727.8 3140.33 -59310.8
vt -17.1061 101.448
f 16/20/9 15/19/9 17/21/5

usemtl BackColor
vn -0.75514 -0.269699 0.597517
f 17/21/7 15/19/10 16/20/10

usemtl M_0039_DarkOrange
v 68677.6 2877.08 -59493.1
vt -10.2495 90.685
f 17/21/5 15/19/9 18/22/9

usemtl BackColor
f 18/22/10 15/19/10 17/21/7

usemtl M_0039_DarkOrange
v 68844.2 3239.69 -59512.9
vt 44.0978 119.298
vn 0.884474 -0.333458 0.326362
vt 38.549 104.58
vn 0.618407 -0.243387 0.747219
vt 39.4 101.508
f 19/23/11 18/24/12 15/25/11

v 68789.7 3175.3 -59488.8
vt 41.8419 116.685
f 18/24/12 19/23/11 20/26/12

usemtl BackColor
vn -0.884474 0.333458 -0.326362
vn -0.618407 0.243387 -0.747219
f 15/25/13 18/24/14 19/23/13

f 20/26/14 19/23/13 18/24/14

usemtl M_0039_DarkOrange
vt 9.84526 109.413
v 68823 3202.26 -59552
vt 9.97461 126.182
vn 0.924093 -0.338155 -0.178052
vt 8.30396 127.748
f 15/27/11 21/28/15 19/29/11

vt 11.6473 107.939
f 21/28/15 15/27/11 14/30/15

usemtl BackColor
vn -0.924093 0.338155 0.178052
f 19/29/13 21/28/16 15/27/13

f 14/30/16 15/27/13 21/28/16

f 14/18/10 13/16/10 15/19/10

f 11/15/7 13/16/10 14/18/10

f 12/17/7 13/16/10 11/15/7

usemtl M_0039_DarkOrange
v 68570.3 1516.31 -60291.6
vt 47.5483 51.2792
vn 0.871433 0.20432 -0.445934
vt 28.3506 90.3311
vn 0.999981 0.00566111 0.00262111
vt 31.3751 83.5
f 22/31/17 12/32/18 13/33/18

v 68561.3 2823.34 -59710.2
vt 24.657 102.738
f 23/34/17 12/32/18 22/31/17

vt 24.5254 94.8315
f 23/34/17 10/35/18 12/32/18

vt 20.645 103.735
f 10/35/18 23/34/17 9/36/18

usemtl BackColor
vn -0.999981 -0.00566111 -0.00262111
vn -0.871433 -0.20432 0.445934
f 9/36/19 23/34/20 10/35/19

f 12/32/19 10/35/19 23/34/20

f 22/31/20 12/32/19 23/34/20

f 13/33/19 12/32/19 22/31/20

usemtl M_0039_DarkOrange
vt 47.5109 42.0901
f 22/31/17 13/33/18 3/37/18

usemtl BackColor
f 3/37/19 13/33/19 22/31/20

usemtl M_0039_DarkOrange
vt 29.0938 84.3491
f 3/37/18 13/33/18 1/38/18

usemtl BackColor
f 1/38/19 13/33/19 3/37/19

usemtl M_0039_DarkOrange
vt 35.4295 88.1352
vn 0.933155 -0.335433 0.129255
vt 8.39981 127.506
vt 33.1683 89.0365
f 13/39/21 16/40/21 1/41/21

usemtl BackColor
f 13/16/10 16/20/10 15/19/10

vn -0.933155 0.335433 -0.129255
f 1/41/22 16/40/22 13/39/22

usemtl M_0039_DarkOrange
vt 33.5385 86.67
vn 0.654733 -0.555541 0.512542
f 16/40/21 2/42/23 1/41/21

v 68796.5 3286.35 -59086
vt 5.68805 127.906
f 2/42/23 16/40/21 24/43/23

usemtl BackColor
vn -0.654733 0.555541 -0.512542
f 24/43/24 16/40/22 2/42/24

f 1/41/22 2/42/24 16/40/22

usemtl M_0039_DarkOrange
vt 40.1086 101.208
vt 35.8334 53.7571
vn 0.197652 -0.624056 0.755969
vt 38.0084 51.4931
f 24/44/23 4/45/25 2/46/23

v 68716.5 3161.92 -59167.8
vt 37.8737 94.9389
f 4/45/25 24/44/23 25/47/25

usemtl BackColor
vn -0.197652 0.624056 -0.755969
f 2/46/24 4/45/26 24/44/24

f 2/2/2 3/3/2 4/4/2

f 3/3/2 5/5/4 4/4/2

usemtl M_0039_DarkOrange
v 68491.1 209.138 -60233.9
vt 48.5599 0.150723
vn 2.3024e-014 0.00750586 0.999972
vt 52.4281 42.4262
vn 0.517128 0.00642432 0.855884
vt 48.7977 42.0267
f 26/48/27 3/49/28 5/50/28

v 68598.4 209.138 -60298.8
vt 53.4962 0.150723
f 27/51/28 3/49/28 26/48/27

v 68582.9 2699.48 -60308.1
vt 53.1652 98.1979
f 3/49/28 27/51/28 28/52/28

usemtl BackColor
vn -2.3024e-014 -0.00750586 -0.999972
vn -0.517128 -0.00642432 -0.855884
f 26/48/29 3/49/30 27/51/30

f 5/50/30 3/49/30 26/48/29

usemtl M_0039_DarkOrange
v 68491.1 1277.48 -60242
vt 48.7232 42.2123
f 29/53/27 26/48/27 5/50/28

v 68413.8 1287.41 -60288.7
vt -1.89895 42.7989
vn -0.517128 0.00642432 0.855884
vt 1.81805 0.34627
vt 1.65478 42.4079
f 30/54/31 26/55/27 29/56/27

v 68383.7 209.138 -60298.8
vt -3.11826 0.34627
f 30/54/31 31/57/31 26/55/27

v 68397.7 2459.91 -60307.2
vt -2.81913 88.9612
f 31/57/31 30/54/31 32/58/31

usemtl BackColor
vn 0.517128 -0.00642432 -0.855884
f 32/58/32 30/54/32 31/57/32

usemtl M_0039_DarkOrange
v 68415.2 1520.72 -60289.6
vt -1.87396 51.9845
f 32/58/31 30/54/31 33/59/31

usemtl BackColor
f 33/59/32 30/54/32 32/58/32

usemtl M_0039_DarkOrange
vt -47.279 42.6012
vn -0.999981 0.00566111 0.00262111
v 68422.7 2620.9 -59800.2
vt -28.048 95.1014
vn -0.871433 0.20432 -0.445934
vt -47.3165 51.7868
f 30/60/33 34/61/34 33/62/34

v 68423.1 2647.97 -59695.7
vt -23.9341 96.1674
f 34/61/34 30/60/33 35/63/33

usemtl BackColor
vn 0.999981 -0.00566111 -0.00262111
vn 0.871433 -0.20432 0.445934
f 35/63/35 30/60/35 34/61/36

usemtl M_0039_DarkOrange
vt -4.08079 21.6414
vn -0.518653 -0.338611 0.785074
vt 13.4452 83.3531
vt 9.09088 78.5697
f 30/64/37 6/65/3 35/66/37

vt -0.529853 21.2258
f 29/67/37 6/65/3 30/64/37

vt -0.496806 21.0286
f 6/65/3 29/67/37 5/68/3

usemtl BackColor
vn 0.518653 0.338611 -0.785074
f 5/68/4 29/67/38 6/65/4

f 5/50/30 26/48/29 29/53/29

f 29/56/29 26/55/29 30/54/32

f 26/55/29 31/57/32 30/54/32

f 30/64/38 6/65/4 29/67/38

f 35/66/38 6/65/4 30/64/38

f 33/62/36 34/61/36 30/60/35

usemtl M_0039_DarkOrange
vt -37.8353 85.9159
v 68491.1 1731.63 -60245.4
vt -49.7838 48.5349
vn -0.518761 0.350429 -0.779799
vt -48.2612 39.6695
f 34/69/34 36/70/39 33/71/34

v 68492.7 1731.84 -60246.4
vt -49.859 48.5441
f 36/70/39 34/69/34 37/72/39

usemtl BackColor
vn 0.518761 -0.350429 0.779799
f 33/71/36 36/70/40 34/69/36

usemtl M_0039_DarkOrange
vt 1.58538 60.288
f 32/58/31 33/59/31 36/73/27

usemtl BackColor
f 36/73/29 33/59/32 32/58/32

usemtl M_0039_DarkOrange
v 68491.1 2594.83 -60251.8
vt 1.45346 94.2732
f 32/58/31 36/73/27 38/74/27

usemtl BackColor
f 38/74/29 36/73/29 32/58/32

usemtl M_0039_DarkOrange
vt 48.9245 94.0777
vt 48.7926 60.0925
vt 48.8678 60.1011
f 38/75/27 36/76/27 37/77/28

usemtl BackColor
f 37/77/30 36/76/29 38/75/29

f 37/72/40 34/69/36 36/70/40

usemtl M_0039_DarkOrange
v 68492.7 2709.91 -59806.8
vt -40.2744 89.6577
f 37/72/39 34/69/34 39/78/39

usemtl BackColor
f 39/78/40 34/69/36 37/72/40

usemtl M_0039_DarkOrange
vt -13.1965 82.9763
vt 0.745634 37.0947
vn 0.518761 0.350429 -0.779799
vt -8.83888 78.2083
f 23/79/17 37/80/41 39/81/41

vt -0.810346 28.0347
f 37/80/41 23/79/17 22/82/17

usemtl BackColor
vn -0.518761 -0.350429 0.779799
f 22/82/20 23/79/20 37/80/42

f 39/81/42 37/80/42 23/79/20

usemtl M_0039_DarkOrange
vt 52.4031 51.6154
f 22/83/28 28/52/28 37/77/28

f 3/49/28 28/52/28 22/83/28

usemtl BackColor
f 28/52/30 27/51/30 3/49/30

usemtl M_0039_DarkOrange
v 68598.4 209.138 -60428.5
vt 52.851 -0.209044
vn 0.870936 0.00725388 -0.491343
vt 48.1135 97.838
vn 0.999981 0.00621142 -1.39267e-013
vt 47.7455 -0.209044
f 40/84/43 28/85/44 27/86/44

v 68587.8 1915.31 -60383.6
vt 51.0841 66.9645
f 28/85/44 40/84/43 41/87/44

usemtl BackColor
vn -0.999981 -0.00621142 1.39267e-013
vn -0.870936 -0.00725388 0.491343
f 27/86/45 28/85/45 40/84/46

f 41/87/45 40/84/46 28/85/45

usemtl M_0039_DarkOrange
v 68587.7 1928.92 -60422
vt 52.5969 67.5003
f 41/87/44 40/84/43 42/88/43

usemtl BackColor
f 42/88/46 40/84/46 41/87/45

usemtl M_0039_DarkOrange
vt -1.24528 67.307
vt -1.47383 -0.402416
v 68564.1 1899.83 -60436.4
vt -0.157819 66.1616
vn 0.517128 0.00642432 -0.855884
f 42/89/43 40/90/43 43/91/47

usemtl BackColor
vn -0.517128 -0.00642432 0.855884
f 43/91/48 40/90/46 42/89/46

usemtl M_0039_DarkOrange
v 68520.8 1937.26 -60462.3
vt 1.82846 67.6352
f 40/90/43 44/92/47 43/91/47

v 68491.1 2537.98 -60475.8
vt 3.10657 91.2862
f 40/90/43 45/93/47 44/92/47

v 68491.1 209.138 -60493.3
vt 3.46247 -0.402416
f 45/93/47 40/90/43 46/94/47

usemtl BackColor
f 46/94/48 40/90/46 45/93/48

f 44/92/48 45/93/48 40/90/46

usemtl M_0039_DarkOrange
v 68520.9 2026.72 -60461.7
vt 1.8142 71.1574
f 44/92/47 45/93/47 47/95/47

usemtl BackColor
f 47/95/48 45/93/48 44/92/48

usemtl M_0039_DarkOrange
v 68563.5 2078.4 -60435.5
vt -0.153646 73.192
f 47/95/47 45/93/47 48/96/47

usemtl BackColor
f 48/96/48 45/93/48 47/95/48

usemtl M_0039_DarkOrange
v 68583.1 2671.51 -60419.2
vt -1.14659 96.5434
f 49/97/43 48/96/47 45/93/47

v 68586.9 2058.42 -60421.5
vt -1.22807 72.4056
f 48/96/47 49/97/43 50/98/43

usemtl BackColor
f 50/98/46 49/97/46 48/96/48

usemtl M_0039_DarkOrange
vt 52.4872 96.7366
v 68587.2 2005.25 -60383.5
vt 51.0818 70.5055
vt 52.5778 72.5989
f 49/99/43 51/100/44 50/101/43

f 51/100/44 49/99/43 28/85/44

usemtl BackColor
f 28/85/45 49/99/46 51/100/45

f 50/101/46 51/100/45 49/99/46

usemtl M_0039_DarkOrange
v 69113.6 3015.54 -61111.6
vt 54.8601 135.894
vn 0.47307 0.339454 0.813004
vt 33.8097 89.5796
vn 0.00942977 0.581418 0.813551
vt 33.8053 87.0067
f 52/102/49 50/103/50 51/104/49

vt 32.8939 90.5462
f 50/103/50 52/102/49 48/105/50

usemtl BackColor
vn -0.47307 -0.339454 -0.813004
vn -0.00942977 -0.581418 -0.813551
f 51/104/51 50/103/52 52/102/51

f 48/105/52 52/102/51 50/103/52

usemtl M_0039_DarkOrange
v 69007.9 2914.14 -61037.9
vt 50.6661 130.987
f 48/105/50 52/102/49 53/106/50

usemtl BackColor
f 53/106/52 52/102/51 48/105/52

usemtl M_0039_DarkOrange
vt -63.1932 125.305
vn -0.802616 0.564909 0.191533
vt -45.5753 82.9637
vn -0.916731 0.325387 -0.231793
vt -44.1851 85.4294
f 53/107/53 47/108/54 48/109/53

v 68956.4 2841.65 -61040.2
vt -63.7487 121.846
f 47/108/54 53/107/53 54/110/54

usemtl BackColor
vn 0.802616 -0.564909 -0.191533
vn 0.916731 -0.325387 0.231793
f 48/109/55 47/108/56 53/107/55

f 54/110/56 53/107/55 47/108/56

usemtl M_0039_DarkOrange
vt -90.2231 103.606
vt -61.7361 67.9991
vn -0.802031 0.00464918 -0.597264
vt -61.7149 71.5213
f 54/111/54 44/112/57 47/113/54

v 69014.3 2874.8 -61117.6
vt -94.0303 104.91
f 44/112/57 54/111/54 55/114/57

usemtl BackColor
vn 0.802031 -0.00464918 0.597264
f 47/113/56 44/112/58 54/111/56

f 55/114/58 54/111/56 44/112/58

usemtl M_0039_DarkOrange
v 69119.5 2976.89 -61189.2
vt -54.5358 136.604
vn 0.46783 -0.655536 -0.592796
vt -30.8402 86.7207
vn -0.00360754 -0.571603 -0.820522
vt -50.3795 131.705
f 56/115/59 44/116/60 55/117/60

vt -32.5407 84.9248
f 44/116/60 56/115/59 43/118/59

usemtl BackColor
vn -0.46783 0.655536 0.592796
vn 0.00360754 0.571603 0.820522
f 43/118/61 56/115/61 44/116/62

usemtl M_0039_DarkOrange
v 69167.4 3045.24 -61185.5
vt 66.8977 134.039
vn 0.807734 -0.55516 -0.198401
vt 43.9244 79.8215
vt 67.4895 130.804
f 57/119/63 43/120/59 56/121/59

vt 43.1511 81.1986
f 57/119/63 42/122/63 43/120/59

vt 41.6811 80.5544
f 42/122/63 57/119/63 41/123/63

usemtl BackColor
vn -0.807734 0.55516 0.198401
f 41/123/64 57/119/64 42/122/64

usemtl M_0039_DarkOrange
vt 96.2127 110.503
vt 60.8552 67.1869
vn 0.807322 0.00464736 0.590093
vt 99.81 111.673
f 52/124/49 41/125/65 57/126/65

vt 60.8404 70.7279
f 41/125/65 52/124/49 51/127/49

usemtl BackColor
vn -0.807322 -0.00464736 -0.590093
f 51/127/51 52/124/51 41/125/66

f 57/126/66 41/125/66 52/124/51

usemtl M_0039_DarkOrange
f 28/85/44 41/87/44 51/100/44

usemtl BackColor
f 51/100/45 41/87/45 28/85/45

f 43/120/61 42/122/64 57/119/64

f 56/121/61 43/120/61 57/119/64

f 55/117/62 44/116/62 56/115/61

f 43/91/48 44/92/48 40/90/46

f 45/93/48 48/96/48 49/97/46

usemtl M_0039_DarkOrange
v 68437.6 1694.57 -60449.8
vt -51.1527 58.276
vn -0.517128 0.00642432 -0.855884
vt -53.4845 91.4818
vt -53.8404 -0.206869
f 58/128/67 45/129/67 46/130/67

v 68438.1 1811.39 -60449.3
vt -51.1592 62.8752
f 45/129/67 58/128/67 59/131/67

usemtl BackColor
vn 0.517128 -0.00642432 0.855884
f 46/130/68 45/129/68 58/128/68

f 59/131/68 58/128/68 45/129/68

usemtl M_0039_DarkOrange
v 67823.4 2416.87 -60443.5
vt -3.39663 86.6618
vn -0.00472168 0.00478485 -0.999977
vt -27.5976 62.8239
vn 0.376449 0.332734 -0.864624
vt -27.5768 58.2247
f 60/132/69 59/133/70 58/134/69

v 68001 2317.51 -60444.8
vt -10.3903 82.7503
f 59/133/70 60/132/69 61/135/70

usemtl BackColor
vn 0.00472168 -0.00478485 0.999977
vn -0.376449 -0.332734 0.864624
f 58/134/71 59/133/72 60/132/71

f 61/135/72 60/132/71 59/133/72

usemtl M_0039_DarkOrange
vt 36.5883 45.1753
v 68394.2 1885.39 -60422.2
vt 26.5534 24.4614
vn 0.65554 0.570459 -0.494817
vt 26.3629 20.9143
f 61/136/70 62/137/73 59/138/70

v 68394.4 1919.62 -60382.4
vt 25.2993 26.1025
f 61/136/70 63/139/73 62/137/73

v 68099.6 2258.36 -60382.4
vt 32.291 42.3398
f 63/139/73 61/136/70 64/140/73

usemtl BackColor
vn -0.65554 -0.570459 0.494817
f 64/140/74 61/136/72 63/139/74

f 62/137/74 63/139/74 61/136/72

usemtl M_0039_DarkOrange
vt -51.0383 67.4998
vn -0.999981 0.00621142 1.65233e-014
v 68397.5 2431.02 -60420.1
vt -52.5227 87.634
vn -0.870936 0.00725388 -0.491343
vt -52.6033 66.1519
f 63/141/75 65/142/76 62/143/76

v 68394 1862.44 -60316
vt -48.4241 65.2483
f 66/144/75 65/142/76 63/141/75

vt -48.0781 88.7714
f 66/144/75 32/145/75 65/142/76

v 68393.3 1746.64 -60315.5
vt -48.4024 60.6891
f 32/145/75 66/144/75 67/146/75

usemtl BackColor
vn 0.999981 -0.00621142 -1.65233e-014
f 67/146/77 66/144/77 32/145/77

usemtl M_0039_DarkOrange
vt 25.3802 65.322
vn 0.376449 0.332734 0.864624
v 67836.1 2401.96 -60321.2
vt 3.4137 86.5633
vn -0.00472168 0.00478485 0.999977
vt 25.3519 60.7629
f 66/147/78 68/148/79 67/149/79

v 68014.4 2302.07 -60319.9
vt 10.4335 82.6306
f 68/148/79 66/147/78 69/150/78

usemtl BackColor
vn 0.00472168 -0.00478485 -0.999977
vn -0.376449 -0.332734 -0.864624
f 67/149/80 68/148/80 66/147/81

usemtl M_0039_DarkOrange
vt -36.8365 53.5817
vn -0.664347 -0.560533 0.494415
v 68392.9 1688.01 -60382.4
vt -25.6803 19.6401
vn -0.764297 -0.644864 3.538e-014
vt -23.5572 22.4271
f 68/151/82 70/152/83 67/153/82

v 67743.5 2457.67 -60382.4
vt -40.9441 56.2303
f 70/152/83 68/151/82 71/154/83

usemtl BackColor
vn 0.664347 0.560533 -0.494415
vn 0.764297 0.644864 -3.538e-014
f 67/153/84 70/152/85 68/151/84

usemtl M_0039_DarkOrange
v 68383.7 209.138 -60428.5
vt -52.851 0.156557
vt -51.0383 58.3811
f 72/155/76 67/146/75 70/156/75

vt -47.7455 0.156557
f 31/157/75 67/146/75 72/155/76

f 67/146/75 31/157/75 32/145/75

usemtl BackColor
vn 0.870936 -0.00725388 0.491343
f 72/155/86 67/146/77 31/157/77

f 70/156/77 67/146/77 72/155/86

usemtl M_0039_DarkOrange
v 68393.1 1723.35 -60422.8
vt -52.6273 59.7724
f 72/155/76 70/156/75 73/158/76

usemtl BackColor
f 73/158/86 70/156/77 72/155/86

usemtl M_0039_DarkOrange
vt -56.2079 53.8003
vt -44.7496 88.4505
vn -0.664347 -0.560533 -0.494415
vt -57.4878 55.4803
f 70/159/83 60/160/87 73/161/87

vt -40.9441 90.3904
f 60/160/87 70/159/83 71/162/83

usemtl BackColor
vn 0.664347 0.560533 0.494415
f 71/162/85 70/159/85 60/160/88

f 71/154/85 68/151/84 70/152/85

f 73/161/88 60/160/88 70/159/85

usemtl M_0039_DarkOrange
vt -59.386 54.1121
f 73/161/87 60/160/87 58/163/87

usemtl BackColor
f 58/163/88 60/160/88 73/161/88

usemtl M_0039_DarkOrange
vt -49.1054 59.4091
f 46/130/67 73/164/76 58/128/67

vt -48.9041 -0.206869
f 73/164/76 46/130/67 72/165/76

usemtl BackColor
f 72/165/86 46/130/68 73/164/86

f 58/128/68 73/164/86 46/130/68

f 32/145/77 31/157/77 67/146/77

f 69/150/81 66/147/81 68/148/80

usemtl M_0039_DarkOrange
vt 56.173 61.1841
vn 0.65554 0.570459 0.494817
vt 45.1961 79.5164
vt 54.0781 58.4428
f 63/166/89 69/167/78 66/168/78

vt 49.1813 77.4214
f 69/167/78 63/166/89 64/169/89

usemtl BackColor
vn -0.65554 -0.570459 -0.494817
f 66/168/81 69/167/81 63/166/90

f 64/169/90 63/166/90 69/167/81

f 63/141/77 65/142/86 66/144/77

f 62/143/86 65/142/86 63/141/77

usemtl M_0039_DarkOrange
vt -49.1269 65.7886
vt -49.1994 87.2707
f 45/129/67 62/170/76 65/171/76

f 45/129/67 59/131/67 62/170/76

usemtl BackColor
f 62/170/86 59/131/68 45/129/68

f 59/138/72 62/137/74 61/136/72

f 65/171/86 62/170/86 45/129/68

f 65/142/86 32/145/77 66/144/77

f 22/83/30 28/52/30 3/49/30

f 37/77/30 28/52/30 22/83/30

usemtl M_0039_DarkOrange
f 37/77/28 28/52/28 38/75/27

usemtl BackColor
f 38/75/29 28/52/30 37/77/30

f 25/47/26 24/44/24 4/45/26

usemtl M_0039_DarkOrange
v 68664.8 2897.85 -59500
vt -9.72412 91.5343
f 74/172/5 17/21/5 18/22/9

usemtl BackColor
f 18/22/10 17/21/7 74/172/7

usemtl M_0039_DarkOrange
vt -39.2037 77.6198
v 68642.8 3007.18 -59401.6
vt -37.3922 83.1877
vt -39.7318 89.9687
f 74/173/5 75/174/6 17/175/5

v 68638.6 2881.39 -59507.2
vt -38.2784 76.7815
f 76/176/6 75/174/6 74/173/5

v 68607.6 2821.56 -59549.8
vt -37.5183 73.7342
f 77/177/6 75/174/6 76/176/6

f 77/177/6 8/13/6 75/174/6

v 68630.9 2795.73 -59577.8
vt -38.6839 72.4188
f 8/13/6 77/177/6 78/178/6

usemtl BackColor
f 78/178/8 77/177/8 8/13/8

f 75/174/8 8/13/8 77/177/8

f 76/176/8 75/174/8 77/177/8

f 74/173/7 75/174/8 76/176/8

f 17/175/7 75/174/8 74/173/7

usemtl M_0039_DarkOrange
f 11/11/5 8/13/6 78/178/6

usemtl BackColor
f 8/13/8 10/12/8 11/11/7

f 78/178/8 8/13/8 11/11/7

f 6/6/4 9/9/2 8/8/2

g Mesh2 Group1 Model

l 13 16

l 12 13

l 10 12

l 10 9

l 8 10

l 7 8

l 4 7

l 2 4

l 1 2

l 13 1

l 3 1

l 5 3

l 29 5

l 30 29

l 33 30

l 36 33

l 37 36

l 22 37

l 3 22

l 37 39

l 23 39

l 9 23

l 6 9

l 35 6

l 34 35

l 39 34

l 30 35

l 4 25

l 25 24

l 24 16

l 16 17

l 17 75

l 8 75

g Mesh3 Group1 Model

l 27 28

l 40 27

l 46 40

l 46 45

l 72 46

l 31 72

l 31 32

l 26 31

l 27 26

l 32 38

l 65 32

l 45 65

l 49 45

l 28 49

l 38 28

g Mesh4 Group1 Model

l 73 58

l 70 73

l 67 70

l 66 67

l 63 66

l 62 63

l 59 62

l 58 59

l 58 60

l 60 71

l 61 60

l 64 61

l 69 64

l 68 69

l 71 68

l 67 68

l 63 64

g Mesh5 Group1 Model

l 47 44

l 48 47

l 48 53

l 50 48

l 51 50

l 41 51

l 41 57

l 42 41

l 43 42

l 44 43

l 44 55

l 56 55

l 57 56

l 52 57

l 53 52

l 54 53

l 55 54

g Mesh6 Group1 Model

l 14 15

l 11 14

l 78 11

l 77 78

l 76 77

l 74 76

l 18 74

l 15 18

l 18 20

l 20 19

l 19 21

l 14 21

