# Alias OBJ Model File
# Exported from SketchUp, (c) 2000-2012 Trimble Navigation Limited
# File units = millimeters

mtllib Pine tree_wood(orange).mtl

g Mesh1 Group1 Model

usemtl M_0039_DarkOrange
v 103046 9469.26 -75496.4
vt 42.9507 77.3745
vn 0.539495 -0.292821 0.789431
v 103018 9400.12 -75513.6
vt 42.5993 75.0051
v 103056 8158.88 -76160.5
vt 53.342 32.4632
f 1/1/1 2/2/1 3/3/1

usemtl BackColor
vn -0.539495 0.292821 -0.789431
f 3/3/2 2/2/2 1/1/2

usemtl M_0039_DarkOrange
v 102953 9454.98 -75444.5
vt 40.085 76.8852
f 4/4/1 3/3/1 2/2/1

v 102941 8146.49 -76092.7
vt 49.7145 32.0386
vn 4.82789e-014 -0.347773 0.937579
f 4/4/1 5/5/3 3/3/1

v 102941 9964.93 -75180.7
vt 35.7724 94.3632
f 5/5/3 4/4/1 6/6/3

usemtl BackColor
vn -4.82789e-014 0.347773 -0.937579
f 6/6/4 4/4/2 5/5/4

usemtl M_0039_DarkOrange
v 102953 9664.93 -75339.3
vt 38.4834 84.081
f 6/6/3 4/4/1 7/7/1

usemtl BackColor
f 7/7/2 4/4/2 6/6/4

usemtl M_0039_DarkOrange
v 103016 9815.97 -75303.5
vt 39.3353 89.2577
f 6/6/3 7/7/1 8/8/1

usemtl BackColor
f 8/8/2 7/7/2 6/6/4

usemtl M_0039_DarkOrange
v 103041 10070.4 -75191.8
vt 38.1838 97.9774
f 8/8/1 9/9/1 6/6/3

v 103043 9794.3 -75331.7
vt 40.3732 88.5148
f 9/9/1 8/8/1 10/10/1

usemtl BackColor
f 10/10/2 8/8/2 9/9/2

usemtl M_0039_DarkOrange
v 103156 10012.7 -75144.9
vt -38.9937 72.7069
vn 0.349517 0.468724 -0.811255
vt -37.3575 63.5977
vn -0.212546 0.575732 -0.78953
vt -36.4567 64.5019
f 11/11/5 10/12/6 8/13/6

v 103044 9654.75 -75469.6
vt -38.3552 57.7762
f 10/12/6 11/11/5 12/14/5

usemtl BackColor
vn -0.349517 -0.468724 0.811255
vn 0.212546 -0.575732 0.78953
f 12/14/7 11/11/7 10/12/8

usemtl M_0039_DarkOrange
vt -6.78721 87.5902
v 103046 9442.93 -75578.7
vt 4.48097 68.5101
vn 0.773068 0.229541 -0.591335
vt 2.13815 75.604
f 11/15/5 13/16/9 12/17/5

v 103188 9969.69 -75129.1
vt -7.65463 86.1513
f 14/18/9 13/16/9 11/15/5

v 103219 10012.7 -75068.7
vt -9.48347 87.5914
f 15/19/9 13/16/9 14/18/9

v 103396 10593 -74548
vt -23.7519 107.027
f 15/19/9 16/20/9 13/16/9

v 103286 10426.4 -74769.5
vt -17.1061 101.448
f 16/20/9 15/19/9 17/21/5

usemtl BackColor
vn -0.773068 -0.229541 0.591335
f 17/21/7 15/19/10 16/20/10

usemtl M_0039_DarkOrange
v 103212 10105.1 -75028.4
vt -10.2495 90.685
f 17/21/5 15/19/9 18/22/9

usemtl BackColor
f 18/22/10 15/19/10 17/21/7

usemtl M_0039_DarkOrange
v 103457 10547.7 -75056.4
vt 44.0978 119.298
vn 0.903331 -0.283135 0.322221
vt 38.549 104.58
vn 0.6361 -0.208133 0.743005
vt 39.4 101.508
f 19/23/11 18/24/12 15/25/11

v 103377 10469.1 -75022.2
vt 41.8419 116.685
f 18/24/12 19/23/11 20/26/12

usemtl BackColor
vn -0.903331 0.283135 -0.322221
vn -0.6361 0.208133 -0.743005
f 15/25/13 18/24/14 19/23/13

f 20/26/14 19/23/13 18/24/14

usemtl M_0039_DarkOrange
vt 9.84526 109.413
v 103426 10502 -75112
vt 9.97461 126.182
vn 0.94187 -0.286538 -0.175434
vt 8.30396 127.748
f 15/27/11 21/28/15 19/29/11

vt 11.6473 107.939
f 21/28/15 15/27/11 14/30/15

usemtl BackColor
vn -0.94187 0.286538 0.175434
f 19/29/13 21/28/16 15/27/13

f 14/30/16 15/27/13 21/28/16

f 14/18/10 13/16/10 15/19/10

f 11/15/7 13/16/10 14/18/10

f 12/17/7 13/16/10 11/15/7

usemtl M_0039_DarkOrange
v 103055 8443.82 -76161.8
vt 47.5483 51.2792
vn 0.882949 0.172109 -0.436782
vt 28.3506 90.3311
vn 0.999986 0.00470646 0.00253385
vt 31.3751 83.5
f 22/31/17 12/32/18 13/33/18

v 103041 10039.5 -75336.5
vt 24.657 102.738
f 23/34/17 12/32/18 22/31/17

vt 24.5254 94.8315
f 23/34/17 10/35/18 12/32/18

vt 20.645 103.735
f 10/35/18 23/34/17 9/36/18

usemtl BackColor
vn -0.999986 -0.00470646 -0.00253385
vn -0.882949 -0.172109 0.436782
f 9/36/19 23/34/20 10/35/19

f 12/32/19 10/35/19 23/34/20

f 22/31/20 12/32/19 23/34/20

f 13/33/19 12/32/19 22/31/20

usemtl M_0039_DarkOrange
vt 47.5109 42.0901
f 22/31/17 13/33/18 3/37/18

usemtl BackColor
f 3/37/19 13/33/19 22/31/20

usemtl M_0039_DarkOrange
vt 29.0938 84.3491
f 3/37/18 13/33/18 1/38/18

usemtl BackColor
f 1/38/19 13/33/19 3/37/19

usemtl M_0039_DarkOrange
vt 35.4295 88.1352
vn 0.950342 -0.284003 0.127253
vt 8.39981 127.506
vt 33.1683 89.0365
f 13/39/21 16/40/21 1/41/21

usemtl BackColor
f 13/16/10 16/20/10 15/19/10

vn -0.950342 0.284003 -0.127253
f 1/41/22 16/40/22 13/39/22

usemtl M_0039_DarkOrange
vt 33.5385 86.67
vn 0.694999 -0.490261 0.525947
f 16/40/21 2/42/23 1/41/21

v 103387 10604.7 -74450.4
vt 5.68805 127.906
f 2/42/23 16/40/21 24/43/23

usemtl BackColor
vn -0.694999 0.490261 -0.525947
f 24/43/24 16/40/22 2/42/24

f 1/41/22 2/42/24 16/40/22

usemtl M_0039_DarkOrange
vt 40.1086 101.208
vt 35.8334 53.7571
vn 0.215361 -0.565302 0.796274
vt 38.0084 51.4931
f 24/44/23 4/45/25 2/46/23

v 103269 10452.8 -74566.5
vt 37.8737 94.9389
f 4/45/25 24/44/23 25/47/25

usemtl BackColor
vn -0.215361 0.565302 -0.796274
f 2/46/24 4/45/26 24/44/24

f 2/2/2 3/3/2 4/4/2

f 3/3/2 5/5/4 4/4/2

usemtl M_0039_DarkOrange
vt 52.4422 42.2989
vn 0.593122 0.00228813 0.80511
vt 48.8118 41.8994
vn 0.524474 0.00087772 0.851426
v 102938 1.00037 -76079.9
vt 48.5738 -220.785
vn 0.121138 0.00102694 0.992635
f 3/48/27 5/49/28 26/50/29

usemtl BackColor
vn -0.121138 -0.00102694 -0.992635
vn -0.524474 -0.00087772 -0.851426
vn -0.593122 -0.00228813 -0.80511
f 26/50/30 5/49/31 3/48/32

usemtl M_0039_DarkOrange
v 102938 8152.25 -76091.3
vt 48.4003 42.086
vn -0.00724851 0.00103285 0.999973
vt 48.2407 -220.784
vt 48.4748 41.9004
f 27/51/33 26/52/29 5/53/28

v 102825 8164.37 -76157.7
vt -1.93112 42.5074
vn -0.575588 0.00224097 0.817737
vt 1.78604 -220.754
vt 1.62261 42.1164
f 28/54/34 26/55/29 27/56/33

vt -1.89895 42.5079
v 102781 1.00037 -76172
vt -3.11826 -220.753
vn -0.619314 0.00129833 0.785143
vt 1.81805 -220.753
f 28/57/34 29/58/35 26/59/29

v 102801 9595.78 -76184
vt -14.424 88.7184
vn -0.619311 0.00359946 0.785138
vt -14.5942 -220.704
vt -13.4617 42.5569
f 30/60/36 29/61/35 28/62/34

v 102795 8725 -76195.7
vt -37.1945 60.613
vn -0.99663 0.00227974 0.081995
vt -36.6993 -220.728
vn -0.986693 0.00142276 0.162588
vt -36.8307 88.6948
vn -0.986688 0.00348035 0.162589
f 31/63/37 29/64/38 30/65/39

v 102781 1.00037 -76356.1
vt -52.851 -220.775
vn -0.973429 0.00121814 -0.228986
vt -47.7455 -220.775
vt -48.4024 60.5656
f 32/66/40 29/67/38 31/68/37

usemtl BackColor
vn 0.99663 -0.00227974 -0.081995
vn 0.986693 -0.00142276 -0.162588
vn 0.973429 -0.00121814 0.228986
f 31/68/41 29/67/42 32/66/43

vn 0.986688 -0.00348035 -0.162589
f 30/65/44 29/64/42 31/63/41

vn 0.575588 -0.00224097 -0.817737
vn 0.619314 -0.00129833 -0.785143
vn 0.619311 -0.00359946 -0.785138
f 28/62/45 29/61/46 30/60/47

f 26/59/30 29/58/46 28/57/45

vn 0.00724851 -0.00103285 -0.999973
f 27/56/48 26/55/30 28/54/45

f 5/53/31 26/52/30 27/51/48

usemtl M_0039_DarkOrange
vt 13.4452 83.3531
vt -0.529853 21.2258
vn -0.539495 -0.292821 0.789431
vt -0.496806 21.0286
f 6/69/3 27/70/49 5/71/3

vt -4.08079 21.6414
f 27/70/49 6/69/3 28/72/49

usemtl BackColor
vn 0.539495 0.292821 -0.789431
f 5/71/4 27/70/50 6/69/4

f 28/72/50 6/69/4 27/70/50

usemtl M_0039_DarkOrange
v 102838 9825.37 -75316
vt 9.09088 78.5697
f 28/72/49 6/69/3 33/73/49

usemtl BackColor
f 33/73/50 6/69/4 28/72/50

usemtl M_0039_DarkOrange
v 102838 9792.31 -75464.3
vt -28.048 95.1014
vn -0.882949 0.172109 -0.436782
vt -47.279 42.6012
vn -0.999986 0.00470646 0.00253385
vt -23.9341 96.1674
f 34/74/51 28/75/52 33/76/52

v 102827 8449.2 -76159
vt -47.3165 51.7868
f 28/75/52 34/74/51 35/77/51

usemtl BackColor
vn 0.999986 -0.00470646 -0.00253385
vn 0.882949 -0.172109 0.436782
f 33/76/53 28/75/53 34/74/54

f 35/77/54 34/74/54 28/75/53

usemtl M_0039_DarkOrange
vt -37.8353 85.9159
v 102938 8706.68 -76096.2
vt -49.7838 48.5349
vn -0.540185 0.303365 -0.784965
vt -48.2612 39.6695
f 34/78/51 36/79/55 35/80/51

v 102941 8706.94 -76097.6
vt -49.859 48.5441
f 36/79/55 34/78/51 37/81/55

usemtl BackColor
vn 0.540185 -0.303365 0.784965
f 35/80/54 36/79/56 34/78/54

usemtl M_0039_DarkOrange
vt -2.81913 88.9612
vt -1.87396 51.9845
vn -0.53 0.0054739 0.84798
vt 1.58538 60.288
vn 2.26767e-014 0.00645509 0.999979
f 30/82/36 35/83/57 36/84/58

vt -1.89895 42.7989
f 35/83/57 30/82/36 28/85/34

usemtl BackColor
vn 0.53 -0.0054739 -0.84798
f 28/85/45 30/82/47 35/83/59

vn -2.26767e-014 -0.00645509 -0.999979
f 36/84/60 35/83/59 30/82/47

usemtl M_0039_DarkOrange
v 102938 9760.49 -76105.4
vt 1.45346 94.2732
f 30/82/36 36/84/58 38/86/58

usemtl BackColor
f 38/86/60 36/84/60 30/82/47

usemtl M_0039_DarkOrange
vt 48.9245 94.0777
vt 48.7926 60.0925
vt 48.8678 60.1011
vn 0.53 0.0054739 0.84798
f 38/87/58 36/88/58 37/89/61

usemtl BackColor
vn -0.53 -0.0054739 -0.84798
f 37/89/62 36/88/60 38/87/60

f 37/81/56 34/78/54 36/79/56

usemtl M_0039_DarkOrange
v 102941 9900.98 -75473.6
vt -40.2744 89.6577
f 37/81/55 34/78/51 39/90/55

usemtl BackColor
f 39/90/56 34/78/54 37/81/56

usemtl M_0039_DarkOrange
vt -13.1965 82.9763
vt 0.745634 37.0947
vn 0.540185 0.303365 -0.784965
vt -8.83888 78.2083
f 23/91/17 37/92/63 39/93/63

vt -0.810346 28.0347
f 37/92/63 23/91/17 22/94/17

usemtl BackColor
vn -0.540185 -0.303365 0.784965
f 22/94/20 23/91/20 37/92/64

f 39/93/64 37/92/64 23/91/20

usemtl M_0039_DarkOrange
vt 52.4031 51.6154
v 103073 9888.25 -76185.3
vt 53.1652 98.1979
vn 0.652936 0.00369642 0.757404
f 22/95/61 40/96/65 37/89/61

vt 52.4281 42.4262
f 40/96/65 22/95/61 3/97/27

usemtl BackColor
vn -0.652936 -0.00369642 -0.757404
f 3/97/32 22/95/62 40/96/66

f 37/89/62 40/96/66 22/95/62

usemtl M_0039_DarkOrange
f 37/89/61 40/96/65 38/87/58

usemtl BackColor
f 38/87/60 40/96/66 37/89/62

usemtl M_0039_DarkOrange
vt 57.9282 98.0606
vt 57.1178 42.29
v 103096 1.00037 -76172
vt 58.0565 -220.794
vn 0.652938 0.00138404 0.75741
f 40/98/65 3/99/27 41/100/67

usemtl BackColor
vn -0.652938 -0.00138404 -0.75741
f 41/100/68 3/99/32 40/98/66

usemtl M_0039_DarkOrange
vt 52.4281 42.2991
vt 48.5599 -220.785
vt 53.4962 -220.785
f 3/101/27 26/102/29 41/103/67

usemtl BackColor
f 41/103/68 26/102/30 3/101/32

usemtl M_0039_DarkOrange
v 103096 1.00037 -76356.1
vt 52.851 -220.873
vn 0.832059 0.00133059 -0.554686
vt 48.1135 97.9819
vn 0.999852 0.00256263 0.0170181
vt 47.7455 -220.873
vn 0.999999 0.0015879 -1.75713e-013
f 42/104/69 40/105/70 41/106/71

usemtl BackColor
vn -0.999999 -0.0015879 1.75713e-013
vn -0.999852 -0.00256263 -0.0170181
vn -0.832059 -0.00133059 0.554686
f 41/106/72 40/105/73 42/104/74

usemtl M_0039_DarkOrange
vt 54.5541 -220.844
v 103080 8930.92 -76292.4
vt 52.7676 67.138
vn 0.999861 0.00243768 0.0164757
vt 49.791 98.0109
f 42/107/69 43/108/75 40/109/70

usemtl BackColor
vn -0.999861 -0.00243768 -0.0164757
f 40/109/73 43/108/76 42/107/74

usemtl M_0039_DarkOrange
vt 51.0841 66.9645
v 103079 9040.72 -76292.3
vt 51.0818 70.5055
vn 0.999987 0.00516398 -1.07103e-013
vt 48.1135 97.838
f 43/110/75 44/111/77 40/112/70

vt 60.8552 67.1869
vn 0.81669 0.00390848 0.577064
v 103852 10274.1 -77325.9
vt 96.2127 110.503
vn 0.492908 0.294044 0.81889
vt 60.8404 70.7279
f 43/113/78 45/114/79 44/115/79

v 103931 10310.4 -77430.7
vt 99.81 111.673
f 45/114/79 43/113/78 46/116/78

usemtl BackColor
vn -0.492908 -0.294044 -0.81889
vn -0.81669 -0.00390848 -0.577064
f 44/115/80 45/114/80 43/113/81

usemtl M_0039_DarkOrange
vt 54.8601 135.894
v 103079 9105.64 -76346.2
vt 33.8097 89.5796
vn 0.0102145 0.523593 0.851907
vt 33.8053 87.0067
f 45/117/79 47/118/82 44/119/79

v 103045 9130.02 -76366.1
vt 32.8939 90.5462
f 47/118/82 45/117/79 48/120/82

usemtl BackColor
vn -0.0102145 -0.523593 -0.851907
f 44/119/80 47/118/83 45/117/80

usemtl M_0039_DarkOrange
v 103073 9854.1 -76343
vt 52.4872 96.7366
vn 0.877911 0.00607891 -0.478786
vt 52.5778 72.5989
f 49/121/84 44/111/77 47/122/84

f 44/111/77 49/121/84 40/112/70

usemtl BackColor
vn -0.877911 -0.00607891 0.478786
vn -0.999987 -0.00516398 1.07103e-013
f 40/112/73 49/121/85 44/111/86

f 47/122/85 44/111/86 49/121/85

usemtl M_0039_DarkOrange
vt -0.153646 73.192
vn 0.53 0.0054739 -0.84798
vt -1.14659 96.5434
vt -1.22807 72.4056
f 48/123/87 49/124/84 47/125/84

v 102938 9691.09 -76423.3
vt 3.10657 91.2862
vn 0.496655 0.00242145 -0.867944
f 49/124/84 48/123/87 50/126/88

usemtl BackColor
vn -0.53 -0.0054739 0.84798
f 47/125/85 49/124/85 48/123/89

vn -0.496655 -0.00242145 0.867944
f 50/126/90 48/123/89 49/124/85

usemtl M_0039_DarkOrange
v 102982 9066.93 -76403.2
vt 1.8142 71.1574
f 51/127/87 50/126/88 48/123/87

v 102982 8957.72 -76404.2
vt 1.82846 67.6352
vn 0.495572 0.00230361 -0.868564
f 50/126/88 51/127/87 52/128/91

usemtl BackColor
vn -0.495572 -0.00230361 0.868564
f 52/128/92 51/127/89 50/126/90

usemtl M_0039_DarkOrange
v 103622 10061.8 -77224.4
vt -90.2231 103.606
vn -0.933796 0.275551 -0.228246
vt -61.7361 67.9991
vn -0.811569 0.00391113 -0.584243
vt -61.7149 71.5213
f 53/129/93 52/130/94 51/131/93

v 103707 10102.3 -77334.4
vt -94.0303 104.91
f 52/130/94 53/129/93 54/132/94

usemtl BackColor
vn 0.933796 -0.275551 0.228246
vn 0.811569 -0.00391113 0.584243
f 51/131/95 52/130/96 53/129/95

f 54/132/96 53/129/95 52/130/96

usemtl M_0039_DarkOrange
v 103861 10226.9 -77436
vt -54.5358 136.604
vn 0.509151 -0.593125 -0.623673
vt -30.8402 86.7207
vn -0.00390145 -0.513927 -0.857825
vt -50.3795 131.705
f 55/133/97 52/134/98 54/135/98

v 103046 8912.02 -76367.4
vt -32.5407 84.9248
f 52/134/98 55/133/97 56/136/97

usemtl BackColor
vn -0.509151 0.593125 0.623673
vn 0.00390145 0.513927 0.857825
f 56/136/99 55/133/99 52/134/100

usemtl M_0039_DarkOrange
vt 66.8977 134.039
vn 0.850369 -0.485902 -0.201918
vt 43.9244 79.8215
vt 67.4895 130.804
f 46/137/101 56/138/97 55/139/97

v 103080 8947.54 -76346.9
vt 43.1511 81.1986
f 46/137/101 57/140/101 56/138/97

vt 41.6811 80.5544
f 57/140/101 46/137/101 43/141/101

usemtl BackColor
vn -0.850369 0.485902 0.201918
f 43/141/102 46/137/102 57/140/102

f 46/116/81 43/113/81 45/114/80

f 56/138/99 57/140/102 46/137/102

usemtl M_0039_DarkOrange
vt -0.923378 67.6139
vn 0.878746 0.00142645 -0.477288
vt -1.14968 -220.903
vt 0.164104 66.4685
vn 0.530653 0.00127081 -0.847588
f 57/142/103 42/143/69 56/144/104

usemtl BackColor
vn -0.530653 -0.00127081 0.847588
vn -0.878746 -0.00142645 0.477288
f 56/144/105 42/143/74 57/142/106

usemtl M_0039_DarkOrange
vt 1.59986 67.9446
vt -0.386433 66.471
vt -1.70401 -220.901
f 52/145/91 56/146/104 42/147/69

usemtl BackColor
f 42/147/74 56/146/105 52/145/92

usemtl M_0039_DarkOrange
vt -4.01889 91.6747
vt -5.30599 68.0242
vt -8.63661 -220.821
f 50/148/88 52/149/91 42/150/69

usemtl BackColor
f 42/150/74 52/149/92 50/148/90

usemtl M_0039_DarkOrange
vt 3.10657 91.5696
vt -1.47383 -220.927
v 102938 1.00037 -76448.1
vt 3.46247 -220.927
vn 0.530008 0.00160607 -0.847991
f 50/151/88 42/152/69 58/153/107

usemtl BackColor
vn -0.530008 -0.00160607 0.847991
f 58/153/108 42/152/74 50/151/90

usemtl M_0039_DarkOrange
vt -51.3699 91.6183
vn -0.502358 0.00357437 -0.864652
vt -51.6877 -220.878
vn -0.512468 0.00131848 -0.858706
v 102860 8661.44 -76386.4
vt -49.0292 58.4132
vn -0.512466 0.00275676 -0.858703
f 50/154/109 58/155/110 59/156/111

usemtl BackColor
vn 0.512466 -0.00275676 0.858703
vn 0.512468 -0.00131848 0.858706
vn 0.502358 -0.00357437 0.864652
f 59/156/112 58/155/113 50/154/114

usemtl M_0039_DarkOrange
v 102794 8696.57 -76348
vt -49.1951 59.5729
vn -0.775606 0.00126883 -0.631215
vt -51.2424 58.4399
vt -53.9312 -220.851
f 60/157/115 59/158/111 58/159/110

vt -57.4878 55.4803
vn -0.705413 -0.494813 -0.507497
v 101958 9543.23 -76377.4
vt -44.7496 88.4505
vt -59.386 54.1121
f 60/160/116 61/161/116 59/162/116

v 102794 8653.43 -76290.7
vt -56.2079 53.8003
vn -0.818673 -0.574259 3.66352e-014
f 62/163/117 61/161/116 60/160/116

v 101841 9593.04 -76290.7
vt -40.9441 90.3904
f 61/161/116 62/163/117 63/164/117

usemtl BackColor
vn 0.818673 0.574259 -3.66352e-014
vn 0.705413 0.494813 0.507497
f 63/164/118 62/163/118 61/161/119

usemtl M_0039_DarkOrange
vt -25.6803 19.6401
v 101976 9525.03 -76203.9
vt -36.8365 53.5817
vn -0.705413 -0.494813 0.507497
vt -40.9441 56.2303
f 62/165/117 64/166/120 63/167/117

vt -23.5572 22.4271
f 64/166/120 62/165/117 31/168/120

usemtl BackColor
vn 0.705413 0.494813 -0.507497
f 31/168/121 62/165/118 64/166/121

usemtl M_0039_DarkOrange
vt -52.7414 -220.777
vt -48.2912 60.5641
vt -50.9272 58.2561
vn -0.999999 0.00107741 2.36671e-005
f 32/169/40 31/170/37 62/171/122

usemtl BackColor
vn 0.999999 -0.00107741 -2.36671e-005
f 62/171/123 31/170/41 32/169/43

usemtl M_0039_DarkOrange
vt -52.9584 -220.776
vt -51.1473 58.2569
vt -52.7362 59.6482
f 32/172/40 62/173/122 60/174/115

usemtl BackColor
vn 0.775606 -0.00126883 0.631215
f 60/174/124 62/173/123 32/172/43

f 60/160/119 61/161/119 62/163/118

f 59/162/119 61/161/119 60/160/119

usemtl M_0039_DarkOrange
vt -3.39663 86.6618
vn -0.00488433 0.00411498 -0.99998
v 102860 8804.05 -76385.6
vt -27.5976 62.8239
vn 0.393148 0.288894 -0.872912
vt -27.5768 58.2247
f 61/175/125 65/176/126 59/177/125

v 102219 9421.94 -76379.3
vt -10.3903 82.7503
f 65/176/126 61/175/125 66/178/126

usemtl BackColor
vn 0.00488433 -0.00411498 0.99998
vn -0.393148 -0.288894 0.872912
f 59/177/127 65/176/128 61/175/127

usemtl M_0039_DarkOrange
vt -51.1592 62.8752
vn -0.53 0.0054739 -0.84798
vt -53.4845 91.4818
vt -51.1527 58.276
f 65/179/129 50/180/109 59/181/111

v 102796 8894.39 -76347.1
vt -49.1269 65.7886
vn -0.877911 0.00607891 -0.478786
f 50/180/109 65/179/129 67/182/130

usemtl BackColor
vn 0.53 -0.0054739 0.84798
f 59/181/112 50/180/114 65/179/131

vn 0.877911 -0.00607891 0.478786
f 67/182/132 65/179/131 50/180/114

usemtl M_0039_DarkOrange
vt 36.5883 45.1753
vt 26.5534 24.4614
vn 0.697437 0.504569 -0.508912
vt 26.3629 20.9143
f 66/183/126 67/184/133 65/185/126

v 102796 8936.19 -76290.7
vt 25.2993 26.1025
f 66/183/126 68/186/133 67/184/133

v 102363 9349.72 -76290.7
vt 32.291 42.3398
f 68/186/133 66/183/126 69/187/133

usemtl BackColor
vn -0.697437 -0.504569 0.508912
f 69/187/134 66/183/128 68/186/134

f 67/184/134 68/186/134 66/183/128

usemtl M_0039_DarkOrange
vt -51.0383 67.4998
vn -0.999987 0.00516398 1.37927e-013
v 102801 9560.51 -76344.2
vt -52.5227 87.634
vt -52.6033 66.1519
f 68/188/135 70/189/130 67/190/130

v 102796 8866.37 -76196.5
vt -48.4241 65.2483
f 71/191/135 70/189/130 68/188/135

vt -48.0781 88.7714
f 71/191/135 30/192/39 70/189/130

vt -48.4024 60.6891
f 30/192/39 71/191/135 31/193/37

usemtl BackColor
vn 0.999987 -0.00516398 -1.37927e-013
f 31/193/41 71/191/136 30/192/44

usemtl M_0039_DarkOrange
vt 25.3802 65.322
vn 0.393148 0.288894 0.872912
vt 3.4137 86.5633
vn -0.00488433 0.00411498 0.99998
vt 25.3519 60.7629
f 71/194/137 64/195/138 31/196/138

v 102238 9403.08 -76202
vt 10.4335 82.6306
f 64/195/138 71/194/137 72/197/137

usemtl BackColor
vn 0.00488433 -0.00411498 -0.99998
vn -0.393148 -0.288894 -0.872912
f 31/196/139 64/195/139 71/194/140

f 72/197/140 71/194/140 64/195/139

usemtl M_0039_DarkOrange
vt 56.173 61.1841
vn 0.697437 0.504569 0.508912
vt 45.1961 79.5164
vt 54.0781 58.4428
f 68/198/141 72/199/137 71/200/137

vt 49.1813 77.4214
f 72/199/137 68/198/141 69/201/141

usemtl BackColor
vn -0.697437 -0.504569 -0.508912
f 71/200/140 72/199/140 68/198/142

f 69/201/142 68/198/142 72/199/140

f 68/188/136 70/189/132 71/191/136

f 67/190/132 70/189/132 68/188/136

usemtl M_0039_DarkOrange
vt -49.1994 87.2707
f 50/180/109 67/182/130 70/202/130

usemtl BackColor
f 70/202/132 67/182/132 50/180/114

f 70/189/132 30/192/44 71/191/136

f 65/185/128 67/184/134 66/183/128

f 66/178/128 61/175/127 65/176/128

f 58/159/113 59/158/112 60/157/124

usemtl M_0039_DarkOrange
vt -49.1054 59.5712
vt -53.8404 -220.853
vt -48.9041 -220.853
f 60/203/115 58/204/110 32/205/40

usemtl BackColor
f 32/205/43 58/204/113 60/203/124

f 63/167/118 64/166/121 62/165/118

usemtl M_0039_DarkOrange
vt 52.7943 -220.858
vt 52.5409 67.6594
vt 51.028 67.1235
f 42/206/69 57/207/103 43/208/75

usemtl BackColor
f 43/208/76 57/207/106 42/206/74

f 55/139/99 56/138/99 46/137/102

f 54/135/100 52/134/100 55/133/99

usemtl M_0039_DarkOrange
vt -45.5753 82.9637
v 103697 10150.3 -77221.3
vt -63.1932 125.305
vn -0.846483 0.495313 0.195275
vt -63.7487 121.846
f 51/209/93 73/210/143 53/211/93

vt -44.1851 85.4294
f 73/210/143 51/209/93 48/212/143

usemtl BackColor
vn 0.846483 -0.495313 -0.195275
f 48/212/144 51/209/95 73/210/144

f 48/123/89 50/126/90 51/127/89

f 53/211/95 73/210/144 51/209/95

usemtl M_0039_DarkOrange
vt 50.6661 130.987
f 48/120/82 45/117/79 73/213/82

usemtl BackColor
f 48/120/83 45/117/80 47/118/83

f 73/213/83 45/117/80 48/120/83

f 40/112/73 44/111/86 43/110/76

f 25/47/26 24/44/24 4/45/26

usemtl M_0039_DarkOrange
v 103193 10130.4 -75038.1
vt -9.72412 91.5343
f 74/214/5 17/21/5 18/22/9

usemtl BackColor
f 18/22/10 17/21/7 74/214/7

usemtl M_0039_DarkOrange
vt -39.2037 77.6198
v 103161 10263.9 -74898.4
vt -37.3922 83.1877
vt -39.7318 89.9687
f 74/215/5 75/216/6 17/217/5

v 103155 10110.3 -75048.2
vt -38.2784 76.7815
f 76/218/6 75/216/6 74/215/5

v 103109 10037.3 -75108.8
vt -37.5183 73.7342
f 77/219/6 75/216/6 76/218/6

f 77/219/6 8/13/6 75/216/6

v 103144 10005.7 -75148.5
vt -38.6839 72.4188
f 8/13/6 77/219/6 78/220/6

usemtl BackColor
f 78/220/8 77/219/8 8/13/8

f 75/216/8 8/13/8 77/219/8

f 76/218/8 75/216/8 77/219/8

f 74/215/7 75/216/8 76/218/8

f 17/217/7 75/216/8 74/215/7

usemtl M_0039_DarkOrange
f 11/11/5 8/13/6 78/220/6

usemtl BackColor
f 8/13/8 10/12/8 11/11/7

f 78/220/8 8/13/8 11/11/7

f 6/6/4 9/9/2 8/8/2

g Mesh2 Group1 Model

l 13 16

l 12 13

l 10 12

l 10 9

l 8 10

l 7 8

l 4 7

l 2 4

l 1 2

l 13 1

l 3 1

l 5 3

l 27 5

l 28 27

l 35 28

l 36 35

l 37 36

l 22 37

l 3 22

l 37 39

l 23 39

l 9 23

l 6 9

l 33 6

l 34 33

l 39 34

l 28 33

l 4 25

l 25 24

l 24 16

l 16 17

l 17 75

l 8 75

g Mesh3 Group1 Model

l 41 40

l 42 41

l 58 42

l 58 50

l 32 58

l 29 32

l 29 30

l 26 29

l 41 26

l 30 38

l 70 30

l 50 70

l 49 50

l 40 49

l 38 40

g Mesh4 Group1 Model

l 60 59

l 62 60

l 31 62

l 71 31

l 68 71

l 67 68

l 65 67

l 59 65

l 59 61

l 61 63

l 66 61

l 69 66

l 72 69

l 64 72

l 63 64

l 31 64

l 68 69

g Mesh5 Group1 Model

l 51 52

l 48 51

l 48 73

l 47 48

l 44 47

l 43 44

l 43 46

l 57 43

l 56 57

l 52 56

l 52 54

l 55 54

l 46 55

l 45 46

l 73 45

l 53 73

l 54 53

g Mesh6 Group1 Model

l 14 15

l 11 14

l 78 11

l 77 78

l 76 77

l 74 76

l 18 74

l 15 18

l 18 20

l 20 19

l 19 21

l 14 21

