# Alias OBJ Model File
# Exported from SketchUp, (c) 2000-2012 Trimble Navigation Limited
# File units = millimeters

mtllib BenchWithFlowers.mtl

g Mesh1 Group1 tulip_2_1 Component_17_1 Model

usemtl _LightCoral_
v 3128.64 1322.62 -94029.8
vt -0.921122 1.18498
vn -0.135692 -0.989242 -0.0546676
v 3160.06 1320.6 -94029.6
vt -0.342507 0.29605
v 3144.28 1321.26 -94023.1
vt -0.447711 0.860353
f 1/1/1 2/2/1 3/3/1

v 3166.73 1321.04 -94045.3
vt -0.66714 -0.177362
f 2/2/1 1/1/1 4/4/1

usemtl _DarkRed_
vn 0.135692 0.989242 0.0546676
f 3/3/2 2/2/2 1/1/2

f 4/4/2 1/1/2 2/2/2

usemtl _LightCoral_
v 3122.3 1323.9 -94045.7
vt -1.48542 1.07978
f 4/4/1 1/1/1 5/5/1

usemtl _DarkRed_
f 5/5/2 1/1/2 4/4/2

usemtl _LightCoral_
v 3160.4 1322.31 -94061.2
vt -1.23144 -0.282565
f 4/4/1 5/5/1 6/6/1

usemtl _DarkRed_
f 6/6/2 5/5/2 4/4/2

usemtl _LightCoral_
v 3128.98 1324.34 -94061.5
vt -1.81006 0.60637
f 6/6/1 5/5/1 7/7/1

usemtl _DarkRed_
f 7/7/2 5/5/2 6/6/2

usemtl _LightCoral_
v 3144.76 1323.68 -94067.9
vt -1.70485 0.0420675
f 6/6/1 7/7/1 8/8/1

usemtl _DarkRed_
f 8/8/2 7/7/2 6/6/2

g Mesh2 tulip_2_1 Component_17_1 Model

usemtl M_0128_White
v 3155.23 1372.05 -94024.5
vt 0.117819 3.56279
vn -0.782438 -0.018401 -0.622456
v 3161.35 1373.55 -94032.2
vt -0.372053 3.59536
v 3158.46 1363.95 -94028.6
vt -0.105177 3.06811
f 9/9/3 10/10/3 11/11/3

v 3152.85 1374.12 -94021.5
vt 0.297148 3.70289
f 10/10/3 9/9/3 12/12/3

usemtl _IndianRed_
vn 0.782438 0.018401 0.622456
f 11/11/4 10/10/4 9/9/4

usemtl M_0128_White
v 3163.29 1375.06 -94034.7
vt -0.531254 3.66547
f 13/13/3 11/11/3 10/10/3

v 3167.33 1378.22 -94039.8
vt -0.863565 3.81181
f 14/14/3 11/11/3 13/13/3

v 3172.58 1363.97 -94046.4
vt -1.22147 2.94538
f 15/15/3 11/11/3 14/14/3

v 3175.53 1353.57 -94050.2
vt -1.41317 2.32041
f 16/16/3 11/11/3 15/15/3

v 3154.36 1338.83 -94023.5
vt 0.31859 1.65715
f 16/16/3 17/17/3 11/11/3

v 3176.69 1341.92 -94051.7
vt -1.45804 1.639
f 18/18/3 17/17/3 16/16/3

v 3175.94 1330.09 -94050.8
vt -1.35191 0.964408
f 19/19/3 17/17/3 18/18/3

v 3173.36 1319.19 -94047.5
vt -1.10465 0.359265
f 20/20/3 17/17/3 19/19/3

v 3166.86 1313.33 -94039.3
vt -0.567465 0.0784765
f 21/21/3 17/17/3 20/20/3

v 3159.81 1310.89 -94030.4
vt 0 0
f 17/17/3 21/21/3 22/22/3

usemtl _LightCoral_
f 22/22/4 21/21/4 17/17/4

f 20/20/4 17/17/4 21/21/4

f 19/19/4 17/17/4 20/20/4

f 18/18/4 17/17/4 19/19/4

f 16/16/4 17/17/4 18/18/4

f 11/11/4 17/17/4 16/16/4

usemtl M_0128_White
v 3141.9 1338.78 -94007.7
vt 1.30432 1.76378
f 17/17/3 23/23/3 11/11/3

v 3143.05 1327.13 -94009.2
vt 1.25945 1.08237
f 17/17/3 24/24/3 23/23/3

v 3146 1316.73 -94013
vt 1.06775 0.457402
f 17/17/3 25/25/3 24/24/3

v 3152.69 1312.05 -94021.4
vt 0.558078 0.129322
f 17/17/3 26/26/3 25/25/3

f 26/26/3 17/17/3 22/22/3

usemtl _LightCoral_
f 22/22/4 17/17/4 26/26/4

f 25/25/4 26/26/4 17/17/4

f 24/24/4 25/25/4 17/17/4

f 23/23/4 24/24/4 17/17/4

f 11/11/4 23/23/4 17/17/4

usemtl M_0128_White
v 3142.64 1350.61 -94008.6
vt 1.1982 2.43837
f 11/11/3 23/23/3 27/27/3

usemtl _LightCoral_
f 27/27/4 23/23/4 11/11/4

usemtl M_0128_White
v 3145.22 1361.51 -94011.9
vt 0.950929 3.04351
f 11/11/3 27/27/3 28/28/3

usemtl _LightCoral_
f 28/28/4 27/27/4 11/11/4

usemtl M_0128_White
v 3149.95 1376.65 -94017.8
vt 0.516359 3.87414
f 11/11/3 28/28/3 29/29/3

usemtl _LightCoral_
f 29/29/4 28/28/4 11/11/4

usemtl M_0128_White
f 11/11/3 29/29/3 12/12/3

usemtl _LightCoral_
f 12/12/4 29/29/4 11/11/4

usemtl M_0128_White
f 11/11/3 12/12/3 9/9/3

usemtl _LightCoral_
f 9/9/4 12/12/4 11/11/4

usemtl _IndianRed_
f 12/12/4 9/9/4 10/10/4

usemtl M_0128_White
f 10/10/3 12/12/3 13/13/3

usemtl _IndianRed_
f 13/13/4 12/12/4 10/10/4

usemtl M_0128_White
v 3158.02 1377.38 -94028
vt -0.124327 3.8452
f 13/13/3 12/12/3 30/30/3

usemtl _IndianRed_
f 30/30/4 12/12/4 13/13/4

usemtl _LightCoral_
f 10/10/4 11/11/4 13/13/4

f 13/13/4 11/11/4 14/14/4

f 14/14/4 11/11/4 15/15/4

f 15/15/4 11/11/4 16/16/4

g Mesh3 tulip_2_1 Component_17_1 Model

l 10 13

l 11 10

l 9 11

l 12 9

l 17 11

l 22 17

g Mesh4 Component_17_1 Model

usemtl M_0128_White
v 2480.26 653.638 -93716.3
vt 20.0021 23.0401
vn 0.703526 -0.100509 -0.703526
v 3198.76 1110.84 -93063.1
vt -18.1838 41.1317
v 3198.76 653.638 -92997.8
vt -20.0021 23.0401
f 31/31/5 32/32/5 33/33/5

v 2545.58 1110.84 -93716.3
vt 18.1838 41.1317
f 32/32/5 31/31/5 34/34/5

vn -0.703526 0.100509 0.703526
f 33/33/6 32/32/6 31/31/6

vt -57.8205 33.4926
vn -0.703526 -0.100509 -0.703526
v 3917.25 653.638 -93716.3
vt -96.0064 15.401
vt -56.0021 15.401
f 32/35/7 35/36/7 33/37/7

v 3851.93 1110.84 -93716.3
vt -94.1881 33.4926
f 35/36/7 32/35/7 36/38/7

vn 0.703526 0.100509 0.703526
f 33/37/8 35/36/8 32/35/8

vt 53.7431 25.4558
vn 0 1 -0
v 4563.83 653.638 -93716.3
vt 107.486 53.7431
vt 82.0304 53.7431
f 33/39/9 37/40/9 35/41/9

v 3198.76 653.638 -92351.2
vt 53.7431 0
f 33/39/9 38/42/9 37/40/9

vt 25.4558 53.7431
f 31/43/9 38/42/9 33/39/9

v 1833.68 653.638 -93716.3
vt 0 53.7431
f 38/42/9 31/43/9 39/44/9

vn -0 -1 0
f 39/44/10 31/43/10 38/42/10

v 3198.76 653.638 -95081.4
vt 53.7431 107.486
f 31/43/9 40/45/9 39/44/9

v 3198.76 653.638 -94434.8
vt 53.7431 82.0304
f 40/45/9 31/43/9 41/46/9

f 39/44/10 40/45/10 31/43/10

vt -114.006 17.5
vn -0.707107 0 -0.707107
v 1833.68 615.538 -93716.3
vt -38.0021 16
vt -38.0021 17.5
f 40/47/11 42/48/11 39/49/11

v 3198.76 615.538 -95081.4
vt -114.006 16
f 42/48/11 40/47/11 43/50/11

vn 0.707107 -0 0.707107
f 39/49/12 42/48/12 40/47/12

v 3198.76 615.538 -92351.2
vt 38.0021 16
vn -0.707107 0 0.707107
f 44/51/13 39/49/13 42/48/13

vt 38.0021 17.5
f 39/49/13 44/51/13 38/52/13

vn 0.707107 -0 -0.707107
f 38/52/14 44/51/14 39/49/14

vn 0.707107 0 0.707107
vt 114.006 17.5
f 44/51/15 37/53/15 38/52/15

v 4563.83 615.538 -93716.3
vt 114.006 16
f 37/53/15 44/51/15 45/54/15

vn -0.707107 -0 -0.707107
f 45/54/16 44/51/16 37/53/16

vt -53.7431 0
vn 0 -1 -0
v 4456.07 615.538 -93716.3
vt -103.244 53.7431
vt -107.486 53.7431
f 44/55/17 46/56/17 45/57/17

v 3198.76 615.538 -92459
vt -53.7431 4.24264
f 44/55/17 47/58/17 46/56/17

v 1941.44 615.538 -93716.3
vt -4.24264 53.7431
f 44/55/17 48/59/17 47/58/17

f 48/59/17 44/55/17 42/44/17

vn -0 1 0
f 42/44/18 44/55/18 48/59/18

f 42/48/14 39/49/14 44/51/14

f 47/58/18 48/59/18 44/55/18

vt -35.0021 6.86781
vn -0.690771 -0.213709 0.690771
v 3198.76 209.138 -92584.7
vt 31.5019 -9.51057
vt 35.0021 6.86781
f 48/60/19 49/61/19 47/62/19

v 2067.17 209.138 -93716.3
vt -31.5019 -9.51057
f 49/61/19 48/60/19 50/63/19

vn 0.690771 0.213709 -0.690771
f 47/62/20 49/61/20 48/60/20

vt 44.5024 6.73226
vn 0.690771 -0.213709 0.690771
vt 111.006 23.1106
vt 41.0021 23.1106
f 49/64/21 46/65/21 47/66/21

v 4330.34 209.138 -93716.3
vt 107.506 6.73226
f 46/65/21 49/64/21 51/67/21

vn -0.690771 0.213709 -0.690771
f 51/67/22 49/64/22 46/65/22

f 47/66/22 46/65/22 49/64/22

f 46/56/18 47/58/18 44/55/18

f 45/57/18 46/56/18 44/55/18

v 3198.76 615.538 -94973.6
vt -53.7431 103.244
f 52/68/17 45/57/17 46/56/17

vt -53.7431 107.486
f 52/68/17 43/69/17 45/57/17

f 48/59/17 43/69/17 52/68/17

f 43/69/17 48/59/17 42/44/17

f 42/44/18 48/59/18 43/69/18

f 52/68/18 43/69/18 48/59/18

f 45/57/18 43/69/18 52/68/18

vn 0.707107 0 -0.707107
f 40/52/23 45/48/23 43/51/23

f 45/48/23 40/52/23 37/49/23

vn -0.707107 -0 0.707107
f 43/51/24 45/48/24 40/52/24

f 37/49/24 40/52/24 45/48/24

f 40/45/9 35/41/9 37/40/9

f 40/45/9 41/46/9 35/41/9

f 41/46/10 31/43/10 40/45/10

v 3198.76 1110.84 -94369.5
vt 94.1881 33.4926
vn 0.703526 -0.100509 0.703526
vt 56.0021 15.401
vt 96.0064 15.401
f 53/70/25 31/71/25 41/72/25

vt 57.8205 33.4926
f 31/71/25 53/70/25 34/73/25

vn -0.703526 0.100509 -0.703526
f 41/72/26 31/71/26 53/70/26

f 34/73/26 53/70/26 31/71/26

vt -53.7431 79.4589
v 2689.26 1110.84 -93716.3
vt -33.6843 53.7431
vt -28.0274 53.7431
f 53/74/17 54/75/17 34/76/17

v 3198.76 1110.84 -94225.8
vt -53.7431 73.802
f 54/75/17 53/74/17 55/77/17

f 34/76/18 54/75/18 53/74/18

vt -53.7431 28.0274
f 54/75/17 32/78/17 34/76/17

v 3198.76 1110.84 -93206.8
vt -53.7431 33.6843
f 32/78/17 54/75/17 56/79/17

f 34/76/18 32/78/18 54/75/18

f 34/34/6 31/31/6 32/32/6

f 56/79/18 54/75/18 32/78/18

v 2689.26 1085.44 -93716.3
vt -14.1838 34.5
vt 14.1838 35.5
vt -14.1838 35.5
f 57/80/13 56/81/13 54/82/13

v 3198.76 1085.44 -93206.8
vt 14.1838 34.5
f 56/81/13 57/80/13 58/83/13

f 58/83/14 57/80/14 56/81/14

v 3198.76 1085.44 -94225.8
f 59/77/17 58/79/17 57/75/17

v 3708.25 1085.44 -93716.3
vt -73.802 53.7431
f 58/79/17 59/77/17 60/84/17

f 57/75/18 58/79/18 59/77/18

f 60/84/18 59/77/18 58/79/18

f 55/81/23 60/80/23 59/83/23

v 3708.25 1110.84 -93716.3
f 60/80/23 55/81/23 61/82/23

f 59/83/24 60/80/24 55/81/24

f 61/82/24 55/81/24 60/80/24

vt -79.4589 53.7431
f 55/77/17 36/85/17 61/84/17

f 55/77/17 53/74/17 36/85/17

f 55/77/18 53/74/18 54/75/18

f 36/85/18 53/74/18 55/77/18

vt -20.0021 7.76184
vn -0.703526 -0.100509 0.703526
vt 18.1838 25.8535
vt -18.1838 25.8535
f 41/86/27 36/87/27 53/88/27

vt 20.0021 7.76184
f 36/87/27 41/86/27 35/89/27

vn 0.703526 0.100509 -0.703526
f 35/89/28 41/86/28 36/87/28

f 35/41/10 41/46/10 40/45/10

f 37/40/10 35/41/10 40/45/10

f 35/41/10 37/40/10 33/39/10

f 37/40/10 38/42/10 33/39/10

f 38/52/16 37/53/16 44/51/16

f 33/39/10 38/42/10 31/43/10

f 53/88/28 36/87/28 41/86/28

f 36/38/8 32/35/8 35/36/8

f 32/78/17 61/84/17 36/85/17

f 32/78/17 56/79/17 61/84/17

f 61/84/18 56/79/18 32/78/18

vt 61.8205 34.5
vt 90.1881 35.5
vt 61.8205 35.5
f 58/90/15 61/91/15 56/92/15

vt 90.1881 34.5
f 61/91/15 58/90/15 60/93/15

f 60/93/16 58/90/16 61/91/16

f 56/92/16 61/91/16 58/90/16

f 36/85/18 61/84/18 32/78/18

f 61/84/18 36/85/18 55/77/18

vt -90.1881 34.5
vt -61.8205 35.5
vt -90.1881 35.5
f 59/94/11 54/95/11 55/96/11

vt -61.8205 34.5
f 54/95/11 59/94/11 57/97/11

f 57/97/12 59/94/12 54/95/12

f 55/96/12 54/95/12 59/94/12

f 54/82/14 56/81/14 57/80/14

f 43/50/12 40/47/12 42/48/12

f 46/56/18 45/57/18 52/68/18

vt -31.5019 22.9751
vn 0.690771 -0.213709 -0.690771
vt 35.0021 39.3535
vt -35.0021 39.3535
f 51/98/29 52/99/29 46/100/29

v 3198.76 209.138 -94847.9
vt 31.5019 22.9751
f 52/99/29 51/98/29 62/101/29

vn -0.690771 0.213709 0.690771
f 62/101/30 51/98/30 52/99/30

f 46/100/30 52/99/30 51/98/30

vt -107.506 6.73226
vn -0.690771 -0.213709 -0.690771
vt -41.0021 23.1106
vt -111.006 23.1106
f 62/102/31 48/103/31 52/104/31

vt -44.5024 6.73226
f 48/103/31 62/102/31 50/105/31

vn 0.690771 0.213709 0.690771
f 50/105/32 62/102/32 48/103/32

f 52/104/32 48/103/32 62/102/32

f 50/63/20 48/60/20 49/61/20

g Mesh5 Component_17_1 Model

l 31 34

l 41 31

l 35 41

l 33 35

l 33 32

l 31 33

l 34 32

l 53 34

l 36 53

l 32 36

l 35 36

l 41 53

g Mesh6 Component_17_1 Model

l 55 59

l 55 54

l 61 55

l 56 61

l 54 56

l 54 57

l 57 58

l 59 57

l 60 59

l 58 60

l 56 58

l 61 60

g Mesh7 Component_17_1 Model

l 40 43

l 39 40

l 38 39

l 38 44

l 37 38

l 37 45

l 40 37

l 43 45

l 42 43

l 44 42

l 45 44

l 39 42

g Mesh8 Component_17_1 Model

l 47 49

l 47 48

l 46 47

l 46 51

l 52 46

l 52 62

l 48 52

l 48 50

l 50 62

l 49 50

l 51 49

l 62 51

